<?xml  version="1.0" encoding="UTF-8"?>
<!DOCTYPE svg PUBLIC "-//W3C//DTD SVG 1.0//EN" "http://www.w3.org/TR/2001/REC-SVG-20010904/DTD/svg10.dtd" >
<svg xmlns="http://www.w3.org/2000/svg" >
<metadata>
<version>1.0</version>
<id><![CDATA[Apollo W01 Semi Bold]]></id>
<vendor>Monotype Imaging Inc.</vendor>
<credits>
<name>Fonts.com WebFonts</name>
<URL>http://webfonts.fonts.com</URL>
<role>Home of the Web fonts</role>
</credits>
<license>
<URL>http://webfonts.fonts.com/Legal</URL>
</license>
<copyright><![CDATA[Copyright 1992, 2002 Adobe Systems Incorporated.  All Rights Reserved. Copyright 1992, 2002 The Monotype Corporation plc. All Rights Reserved.]]></copyright>
<trademark><![CDATA[Apollo is a trademark of The Monotype Corporation in the United States and/or other countries. MT is a trademark of Monotype Imaging Inc. Registered in U.S. Patent and Trademark Office and may be registered in certain other jurisdictions.]]></trademark>
<licensee>
<name></name>
</licensee>
</metadata>
<defs >
<font horiz-adv-x="1100" id="7f2cf210-25d1-4023-b855-45d43797a31c">
<font-face font-family="" panose-1="2 4 7 3 6 3 1 2 2 3" ascent="1656" descent="-575" units-per-em="2048" alphabetic="0">
</font-face>
<missing-glyph horiz-adv-x="0" />

<glyph unicode="&#xA;" />
<glyph unicode="&#xD;" horiz-adv-x="492" />
<glyph unicode=" " horiz-adv-x="492" />
<glyph unicode="!" horiz-adv-x="555" d="M254 326L152 1085Q149 1102 149 1114Q149 1169 185 1186T291 1204Q360 1204 391 1180T422 1104L313 326H254ZM285 250Q341 250 381 211T422 115Q422 58 382 18T285 -23Q229 -23 190 17T150 115Q150 171 189 210T285 250Z"  />
<glyph unicode="&quot;" horiz-adv-x="1137" d="M352 721H303L201 1106Q180 1175 180 1229Q180 1297 221 1341T328 1386Q390 1386 432 1345T475 1241Q475 1198 451 1104L352 721ZM836 721H786L684 1104Q662 1197 662 1231Q662 1297 704 1341T809 1386Q849 1386 883 1367T937 1314T956 1241Q956 1212 932 1104L836 721Z"  />
<glyph unicode="#" horiz-adv-x="1368" d="M90 973H416L502 1376H623L537 973H958L1042 1376H1165L1079 973H1278V850H1055L979 479H1278V356H954L870 -45H748L834 356H410L326 -45H203L287 356H90V479H313L391 850H90V973ZM512 850L434 481H858L934 850H512Z"  />
<glyph unicode="$" horiz-adv-x="981" d="M393 1321H420Q430 1321 430 1300V1198Q461 1203 508 1203Q539 1203 555 1202V1307Q555 1321 563 1321H588Q594 1321 598 1318T602 1309V1196Q665 1191 725 1170T829 1116V924Q829 915 815 915H772Q768 915 760 948Q742 1020 707 1055T602 1120V674Q756 592 834 511T913 305Q913 233 873 164T760 47T602 -12V-182Q602 -195 588 -195H573Q557 -195 557 -182V-20Q514 -23 430 -23V-184Q430 -195 412 -195H393Q388 -195 386 -193T383 -184V-20Q332 -16 265 -3T147 29Q142 31 136 34T129 41V264Q129 272 141 272H180Q186 272 193 258Q218 104 381 55V535Q223 616 153 698T82 874Q82 946 118 1010T223 1121T381 1190V1307Q381 1321 393 1321ZM381 791V1112Q325 1091 293 1047T260 954Q260 856 381 791ZM430 1124V764L555 698V1128Q536 1134 502 1134Q459 1134 430 1124ZM602 422V72Q658 96 692 143T727 246Q724 351 602 422ZM430 510V47Q450 44 473 44Q519 44 557 55V444L430 510Z"  />
<glyph unicode="%" horiz-adv-x="1985" d="M518 655Q637 655 637 924Q637 1198 514 1198Q393 1198 393 922Q393 655 518 655ZM514 1241Q591 1241 652 1219T755 1155T817 1059T838 934Q837 838 794 764T676 650T516 610Q407 610 334 651T227 760T193 911Q193 1060 289 1150T514 1241ZM1495 -61Q1400 -61 1329 -25T1217 79T1176 244Q1176 336 1217 409T1331 524T1495 565Q1599 565 1672 523T1781 409T1817 250Q1817 166 1775 95T1659 -19T1495 -61ZM1495 -20Q1616 -20 1616 244Q1616 368 1586 445T1491 522Q1374 522 1374 266Q1374 138 1401 59T1495 -20ZM1389 1241H1499L618 -61H514L1389 1241Z"  />
<glyph unicode="&amp;" horiz-adv-x="1536" d="M629 1137Q568 1137 526 1097T483 995Q483 969 495 941T530 882T581 822T651 745Q717 779 750 834T784 954Q784 1028 744 1082T629 1137ZM928 137L473 602Q411 564 381 505T350 377Q350 252 438 162Q534 64 697 64Q761 64 819 82T928 137ZM1075 0L979 90Q824 -25 569 -25Q453 -25 348 16T179 136T115 322Q115 432 201 513T426 653Q333 755 294 815T254 940Q254 1022 299 1081T431 1172T627 1204Q772 1204 853 1136T936 961Q936 875 874 803T700 694L1063 319Q1098 401 1098 472Q1098 538 1068 576T977 614Q957 614 951 616T944 629V664Q944 676 961 676H1376Q1391 676 1391 664L1393 625Q1393 614 1366 614Q1285 614 1247 578Q1223 554 1206 498T1170 371T1126 260Q1199 185 1250 143T1347 82T1446 63Q1464 63 1464 51V12Q1464 8 1459 4T1452 0H1075Z"  />
<glyph unicode="&apos;" horiz-adv-x="569" d="M309 721H262L158 1104Q137 1170 137 1229Q137 1297 178 1341T285 1386Q350 1386 391 1343T432 1231Q432 1200 410 1104L309 721Z"  />
<glyph unicode="(" horiz-adv-x="662" d="M606 -508V-569Q437 -543 323 -405T155 -59T100 383Q100 517 126 670T209 963T368 1202T612 1325V1264Q522 1237 467 1145T383 921T347 664T338 391Q338 173 353 -2T427 -324T606 -508Z"  />
<glyph unicode=")" horiz-adv-x="662" d="M68 -571V-510Q157 -484 210 -396T291 -179T326 85T334 387Q334 562 327 692T292 944T211 1149T68 1266V1327Q243 1296 357 1152T525 808T578 410Q578 262 555 104T477 -197T319 -441T68 -571Z"  />
<glyph unicode="*" horiz-adv-x="768" d="M358 1053Q352 1101 329 1173T305 1268Q305 1302 331 1314T385 1327Q471 1327 471 1270Q471 1250 467 1233T447 1166T426 1096T418 1053Q468 1080 519 1116T588 1163T627 1174Q649 1174 660 1160T684 1114Q695 1079 695 1060Q695 1037 682 1024Q668 1010 642 1006T539 1001T436 997Q465 969 520 926T588 870Q618 842 618 818Q618 798 598 778Q553 730 513 730Q492 730 477 745Q461 762 431 852T387 961Q368 921 343 842T295 741Q282 729 264 729Q227 729 182 774Q160 796 160 819Q160 842 182 864Q203 885 250 920T340 997Q290 1002 229 1002T139 1005T96 1024Q83 1037 83 1060Q83 1074 90 1102Q110 1171 152 1171Q181 1171 253 1121T358 1053Z"  />
<glyph unicode="+" horiz-adv-x="1366" d="M137 727H614V1206H745V727H1227V596H745V121H614V596H137V727Z"  />
<glyph unicode="&#x2c;" horiz-adv-x="662" d="M190 -233H143Q134 -233 134 -228Q134 -230 154 -162Q169 -114 187 -12T214 128T242 184Q257 199 290 208T361 218Q410 218 441 201T473 145Q473 106 403 15T190 -233Z"  />
<glyph unicode="-" horiz-adv-x="662" d="M76 508H606Q625 508 625 489V346Q625 330 622 326T606 322H76Q59 322 59 344V483Q59 508 76 508Z"  />
<glyph unicode="." horiz-adv-x="662" d="M336 244Q392 244 432 205T473 109Q473 51 433 12T336 -27Q279 -27 240 12T201 109Q201 165 240 204T336 244Z"  />
<glyph unicode="/" horiz-adv-x="768" d="M633 1323H780L162 -569H12L633 1323Z"  />
<glyph unicode="0" horiz-adv-x="981" d="M475 -23Q49 -23 49 569Q49 744 97 888T253 1119T524 1206Q635 1206 715 1166T845 1052T921 868T946 612Q946 466 916 351T824 151T675 22T475 -23ZM504 45Q618 45 657 166T696 506Q696 709 682 841T623 1056T492 1139Q405 1139 362 1068T308 890T297 621Q297 432 316 306T380 113T504 45Z"  />
<glyph unicode="1" horiz-adv-x="981" d="M614 965V442V367Q614 212 619 165T649 92Q680 63 768 63H799Q813 63 813 47V18Q813 6 809 3T788 0H209Q197 0 193 2T188 14V41Q188 63 209 63H252Q323 63 354 94Q378 118 384 175T391 401V885V924Q391 1023 374 1069T293 1116H236Q215 1116 215 1135V1171Q215 1182 264 1182Q387 1182 494 1193T602 1204Q618 1204 618 1192Q618 1175 616 1103T614 965Z"  />
<glyph unicode="2" horiz-adv-x="981" d="M868 0H102Q82 0 82 18V160Q176 228 264 299T412 430Q527 547 576 643T625 836Q625 896 597 947T518 1030T406 1061Q274 1061 184 918Q167 889 158 889Q156 889 152 891L117 903Q112 905 112 911Q112 918 117 932Q157 1057 262 1132T516 1208Q619 1208 698 1166T819 1054T862 907Q862 816 820 729T676 541Q636 501 561 437T418 322T266 209V205H616Q707 205 750 213T809 243T825 307Q825 330 838 330H872Q887 330 887 315V18Q887 0 868 0Z"  />
<glyph unicode="3" horiz-adv-x="981" d="M84 39L96 80Q99 88 106 88Q113 88 143 79T212 64T313 57Q418 57 496 96T615 204T655 354Q655 426 625 485T539 579T410 614Q379 614 371 617T362 635V668Q362 680 379 680H408Q494 680 543 732T592 881Q592 981 539 1045T387 1110Q288 1110 195 1038Q180 1027 172 1027Q167 1027 162 1032L137 1059Q137 1074 147 1083Q198 1134 289 1171T496 1208Q589 1208 665 1175T783 1082T825 944Q825 847 760 774T569 668V664Q655 664 730 636T855 540T905 367Q905 305 877 238T788 111T625 14T385 -23Q235 -23 100 25Q84 29 84 39Z"  />
<glyph unicode="4" horiz-adv-x="981" d="M174 403H578V1004L174 403ZM924 293H795V212Q795 128 809 96T877 63H924Q934 63 934 51V20Q934 8 929 4T905 0H399Q387 0 383 5T379 20V47Q379 63 401 63H453Q531 63 553 90T576 188Q576 213 576 236T575 291H57Q47 291 47 303V426Q113 521 182 624T319 828T438 1008T551 1182H782Q795 1182 795 1165V403H926Q942 403 942 389V315Q942 293 924 293Z"  />
<glyph unicode="5" horiz-adv-x="981" d="M211 1178H627Q688 1178 730 1186T774 1195Q782 1195 782 1176V1124Q782 1063 765 1032T696 988T543 975H270L260 760Q336 780 430 780Q638 780 755 682T872 426Q872 301 809 198T626 36T350 -23Q275 -23 197 -11T119 20L129 59Q132 66 139 66Q145 66 189 58T289 49Q367 49 432 74T540 143T606 244T629 367Q629 453 593 530T486 653T319 700Q274 700 227 687T179 674Q168 674 168 688L193 1161L211 1178Z"  />
<glyph unicode="6" horiz-adv-x="981" d="M821 1176L813 1137Q811 1126 794 1126Q789 1126 775 1127T739 1131T702 1133Q542 1133 436 1010T322 653Q380 687 436 705T573 723Q652 723 714 701T821 634T889 527T913 379Q913 273 869 182T731 34T500 -23Q368 -23 272 34T125 204T74 477Q74 567 92 672T154 878T272 1053Q316 1097 374 1130T508 1182T674 1202Q733 1202 777 1195T821 1176ZM504 45Q552 45 589 74T648 166T670 326Q670 421 651 493T593 605T492 645Q422 645 376 586T330 389Q330 216 373 131T504 45Z"  />
<glyph unicode="7" horiz-adv-x="981" d="M766 977H305Q242 977 205 948T168 854Q168 833 165 828T152 823H127Q113 823 109 825T104 838V1167Q104 1182 133 1182H881Q905 1182 905 1165V1024Q889 983 830 843T723 583T621 323T530 70Q521 41 516 24T508 3T492 0H303Q290 0 290 6Q290 7 299 27L766 977Z"  />
<glyph unicode="8" horiz-adv-x="981" d="M588 725Q628 757 645 799T662 913Q662 973 643 1025T588 1108T502 1139Q437 1139 392 1097T346 979Q346 930 364 895T415 832T489 781T588 725ZM393 565Q339 540 314 475T289 334Q289 196 355 122T514 47Q572 47 619 73T694 143T721 240Q721 311 687 361T591 451T393 565ZM516 1208Q622 1208 699 1177T818 1087T860 950Q860 897 839 851T771 764T653 686Q731 647 790 601T890 484T930 322Q930 237 887 158T742 27T481 -25Q278 -25 174 67T70 285Q70 400 137 478T328 608Q141 725 141 911Q141 995 186 1063T317 1169T516 1208Z"  />
<glyph unicode="9" horiz-adv-x="981" d="M166 4L180 47Q181 55 193 55Q197 55 225 51T279 47Q459 47 558 176T666 530Q548 459 412 459Q254 459 163 552T72 797Q72 900 115 993T253 1146T494 1206Q619 1206 713 1150T860 981T913 705Q913 545 874 412T759 181T570 30T315 -23Q254 -23 210 -14T166 4ZM489 539Q655 539 655 803Q655 1139 485 1139Q402 1139 360 1068T317 872Q317 539 489 539Z"  />
<glyph unicode=":" horiz-adv-x="662" d="M344 242Q401 242 440 202T479 106Q479 51 439 11T344 -29Q288 -29 249 11T209 106Q209 161 247 201T344 242ZM342 856Q399 856 438 817T477 721Q477 665 438 627T342 588Q287 588 248 627T209 721Q209 777 247 816T342 856Z"  />
<glyph unicode=";" horiz-adv-x="662" d="M195 -233H150Q138 -233 138 -226Q138 -220 156 -164Q171 -113 188 -13T214 124T242 180Q279 217 357 217Q406 217 440 198T475 143Q475 118 445 72T360 -42T195 -233ZM334 858Q390 858 430 820T471 723Q471 666 431 627T334 588Q277 588 238 627T199 723Q199 781 238 819T334 858Z"  />
<glyph unicode="&lt;" horiz-adv-x="1366" d="M1227 147L141 604V723L1227 1178V1036L317 664L1227 289V147Z"  />
<glyph unicode="=" horiz-adv-x="1366" d="M139 967H1225V834H139V967ZM139 498H1225V367H139V498Z"  />
<glyph unicode="&gt;" horiz-adv-x="1366" d="M141 1178L1225 721V604L141 147V289L1049 662L141 1036V1178Z"  />
<glyph unicode="?" horiz-adv-x="874" d="M444 324H408Q401 324 399 327T397 342Q397 399 419 444T492 569T569 709T594 840Q594 899 566 955T482 1046T354 1081Q285 1081 222 1044T113 944Q99 925 94 925Q92 926 90 927T84 928L51 942Q47 944 47 947Q47 952 51 961Q92 1061 194 1131T455 1202Q533 1202 600 1179T719 1114T797 1017T825 899Q825 814 784 743T664 592Q600 533 539 475T459 342Q454 324 444 324ZM428 246Q484 246 523 207T563 111Q563 55 523 15T428 -25Q373 -25 332 15T291 111Q291 167 331 206T428 246Z"  />
<glyph unicode="@" horiz-adv-x="1905" d="M1182 926L1425 936L1243 307Q1212 203 1212 158Q1212 121 1235 97T1294 72Q1332 72 1368 90Q1477 140 1556 231T1680 446T1724 700Q1724 838 1678 952T1546 1149T1341 1279T1079 1325Q896 1325 735 1256T454 1062T268 766T201 403Q201 172 300 -7T579 -287T987 -387Q1122 -387 1249 -349T1487 -235T1676 -60T1802 166H1864Q1803 18 1716 -94T1516 -285T1267 -402T981 -442Q788 -442 625 -378T343 -193T159 91T94 449Q94 710 219 925T565 1263T1053 1386Q1221 1386 1355 1339T1584 1202T1730 985T1782 702Q1782 509 1703 348T1486 93T1184 0Q1087 0 1033 48T979 180Q979 237 1001 311L997 315Q915 173 872 122T756 27Q718 0 662 0Q578 0 534 61T489 236Q489 439 607 639T901 936Q951 963 1001 963Q1069 963 1102 927T1147 807H1151L1182 926ZM1034 891H1030Q988 891 938 827T843 657T768 424Q761 394 755 341T748 276Q748 237 764 210T805 182Q824 182 854 204T913 262Q973 337 1015 422T1079 600Q1102 678 1102 756Q1102 815 1084 851T1034 891Z"  />
<glyph unicode="A" horiz-adv-x="1430" d="M655 940L442 451H864L655 940ZM227 233L653 1143Q656 1148 666 1175T686 1202H788Q797 1202 808 1168T836 1096L1243 170Q1288 63 1378 63Q1391 63 1391 47V16Q1391 4 1389 2T1378 0H850Q827 0 827 14V53Q827 63 850 63Q921 63 952 77T984 127Q984 154 963 209L899 375H412L344 217Q320 162 320 126Q320 88 349 76T440 63Q450 63 452 60T455 41V18Q455 7 452 4T440 0H70Q57 0 57 16V47Q57 63 70 63Q116 63 152 106T227 233Z"  />
<glyph unicode="B" horiz-adv-x="1217" d="M496 1102V649H588Q699 649 768 710T838 883Q838 993 781 1052T600 1112Q550 1112 496 1102ZM496 582V70Q554 65 593 65Q665 65 717 82T811 139Q887 215 887 317Q885 434 815 508T614 582H496ZM260 305V846V881Q260 1055 225 1092Q203 1114 120 1114H78Q71 1114 64 1120T57 1133V1163Q57 1178 78 1178H748Q846 1178 920 1144T1033 1050T1071 915Q1071 660 778 625V621Q895 612 976 574T1097 470T1137 315Q1137 218 1084 146T938 37T733 0H76Q64 0 61 2T57 10V45Q57 63 84 63H109Q202 63 227 88Q247 108 253 154T260 305Z"  />
<glyph unicode="C" horiz-adv-x="1217" d="M1094 244L1122 223Q1128 219 1128 213Q1128 207 1122 195Q1065 81 940 27T680 -27Q512 -27 381 53T177 269T104 565Q104 640 124 723T185 882T285 1016Q381 1112 498 1157T809 1202Q882 1202 967 1188T1104 1153Q1139 1140 1139 1130V823Q1139 803 1122 803H1085Q1079 803 1077 805T1071 821T1061 850Q1041 900 1000 965T891 1081T733 1133Q637 1133 550 1070T410 886T356 614Q356 477 410 356T558 161T768 86Q923 86 1042 207Q1081 246 1087 246Q1088 246 1094 244Z"  />
<glyph unicode="D" horiz-adv-x="1430" d="M514 963V328Q515 286 515 224T518 76Q560 67 610 67Q667 67 726 79T840 119T938 190Q1006 260 1042 365T1079 616Q1079 746 1050 838T946 1001Q893 1055 817 1084T625 1114Q558 1114 520 1108Q519 1084 518 1060T516 1012T514 963ZM66 1130V1165Q66 1174 70 1176T88 1178H743Q853 1178 968 1136T1165 1012Q1337 840 1337 598Q1337 427 1257 291T1027 77T678 0H82Q66 0 66 16V49Q66 61 82 61Q211 61 246 92Q263 110 271 183T279 352V842Q279 1052 240 1092Q216 1114 110 1114H88Q66 1114 66 1130Z"  />
<glyph unicode="E" horiz-adv-x="1110" d="M1024 0H76Q59 0 59 18V49Q59 63 84 63Q196 63 223 90Q241 108 248 218T256 453V786Q256 939 251 1004T223 1092Q199 1114 90 1114Q61 1114 61 1128V1163Q61 1178 70 1178H997Q1014 1178 1014 1167V934Q1014 926 1001 926H965Q957 926 955 929T946 948Q922 1015 876 1059T768 1104H496Q495 1071 495 1043T492 969V647H743Q803 647 845 687T897 799Q897 821 907 821H950Q958 821 958 805V416Q958 403 946 403H915Q905 403 901 409T893 438Q887 491 843 531T754 571H492V313Q492 199 498 76H733Q836 76 891 118T973 258Q980 285 989 285L1026 287Q1040 287 1040 268V12Q1040 0 1024 0Z"  />
<glyph unicode="F" horiz-adv-x="981" d="M467 635H649Q709 635 755 683T801 797Q801 823 813 823H852Q862 823 862 805V397Q862 371 854 371H817Q801 371 801 399Q801 443 779 481T720 540T647 561H467V324Q467 249 469 193T475 117T489 88Q515 61 666 61Q683 61 686 60T690 49V8Q690 0 676 0H57Q52 0 51 1T48 4T47 12V49Q47 61 74 61Q173 61 201 88Q218 106 223 139T229 221V885Q229 991 225 1032T201 1092Q178 1114 66 1114Q45 1114 45 1126V1161Q45 1178 59 1178H924Q942 1178 942 1167V936Q942 924 936 924H889Q880 924 872 950Q857 997 830 1031T765 1085T688 1104H469Q467 1063 467 983V635Z"  />
<glyph unicode="G" horiz-adv-x="1430" d="M1391 547V512Q1391 498 1370 498Q1287 498 1250 483T1205 436T1196 330Q1196 293 1202 53Q1064 12 976 -7T770 -27Q591 -27 472 18T260 154Q210 204 174 267T120 399T102 530Q102 676 151 797T287 1006Q390 1109 525 1156T846 1203Q1028 1203 1182 1165Q1190 1163 1190 1155V825Q1190 817 1180 817H1137Q1134 817 1131 821T1124 834T1116 854Q1087 926 1039 991T925 1096T780 1136Q667 1136 571 1078T415 899T356 604Q356 445 401 329T512 147Q619 40 775 40Q863 40 954 82Q961 185 961 221V344Q961 437 928 471Q901 498 795 498Q774 498 769 500T764 508V551Q764 561 774 561H1378Q1391 561 1391 547Z"  />
<glyph unicode="H" horiz-adv-x="1536" d="M260 217V944Q260 1059 231 1085Q216 1101 174 1107T88 1114Q66 1114 61 1117T55 1128V1165Q55 1178 76 1178H674Q696 1178 696 1165V1135Q696 1122 691 1118T662 1114Q551 1114 524 1087Q496 1059 496 897V666H1049V922Q1049 1058 1022 1085Q1007 1101 963 1107T870 1114Q856 1114 853 1117T850 1133V1165Q850 1178 866 1178H1473Q1485 1178 1485 1169V1133Q1485 1114 1462 1114Q1335 1114 1307 1085Q1284 1063 1284 899V254Q1284 190 1289 149T1313 88Q1337 63 1454 63Q1485 63 1485 49V14Q1485 0 1470 0H868Q857 0 854 1T850 12V47Q850 63 872 63Q994 63 1026 94Q1049 121 1049 274V569H496V250Q496 121 524 94Q556 63 670 63Q694 63 694 45V16Q694 5 690 3T670 0H74Q57 0 57 16V45Q57 63 86 63Q207 63 238 92Q260 115 260 217Z"  />
<glyph unicode="I" horiz-adv-x="768" d="M510 903V213Q510 113 535 88Q560 63 690 63Q709 63 713 61T717 45V14Q717 0 696 0H78Q59 0 59 14V43Q59 55 65 59T90 63H117Q217 63 248 94Q263 110 267 156T272 285V983Q272 1061 244 1090Q219 1114 109 1114Q79 1114 70 1118T61 1135V1165Q61 1178 72 1178H702Q721 1178 721 1165V1133Q721 1121 715 1117T690 1112Q624 1112 588 1107T535 1085Q510 1061 510 903Z"  />
<glyph unicode="J" horiz-adv-x="981" d="M514 373V729Q514 857 506 966T483 1090Q466 1106 428 1110T334 1114Q305 1114 305 1135V1167Q305 1178 319 1178H915Q934 1178 934 1167V1133Q934 1122 928 1118T903 1114Q855 1114 818 1109T764 1087Q756 1079 752 1021T748 903V627Q748 591 750 513T752 403Q752 276 728 210T655 94Q538 -23 324 -23Q219 -23 90 -2Q72 2 72 16V299Q72 309 78 309H131Q145 309 156 281Q191 176 206 137T254 71T344 43Q450 43 482 139T514 373Z"  />
<glyph unicode="K" horiz-adv-x="1430" d="M872 1178H1317Q1331 1178 1331 1163V1130Q1331 1119 1329 1117T1313 1114Q1236 1114 1171 1079Q1115 1046 1052 994T907 869T741 721Q789 661 865 560T1017 359T1123 224T1190 147Q1230 108 1276 86T1362 63Q1380 63 1380 43V14Q1380 0 1360 0H834Q822 0 820 2T817 12V45Q817 63 850 63Q919 63 919 97Q919 112 905 129Q869 175 818 242T703 393T592 541T520 635Q587 691 672 767T813 894T958 1034Q977 1053 977 1073Q977 1114 879 1114Q858 1114 858 1130V1163Q858 1178 872 1178ZM502 862V365V315Q502 217 505 159T520 86Q543 63 649 63H690Q715 63 715 43V14Q715 5 711 3T692 0H74Q65 0 63 3T61 14V43Q61 63 84 63Q97 63 107 63T131 62Q212 62 242 92Q257 108 261 169T266 335V412V842Q266 1063 244 1085Q215 1114 92 1114Q75 1114 69 1115T61 1118T59 1128V1163Q59 1178 78 1178H686Q700 1178 700 1163V1130Q700 1114 680 1114Q547 1114 520 1087Q502 1070 502 928V862Z"  />
<glyph unicode="L" horiz-adv-x="1110" d="M274 348V854Q274 1059 244 1090Q219 1114 109 1114Q86 1114 79 1116T72 1128V1167Q72 1178 92 1178H711Q727 1178 727 1165V1135Q727 1120 724 1117T702 1114Q569 1114 543 1087Q510 1057 510 752V205Q510 180 512 138T514 72H668Q769 72 831 101T928 182T985 311Q990 329 991 331T999 334H1036Q1051 334 1051 315V20Q1051 7 1048 4T1032 0H90Q72 0 72 8V47Q72 63 98 63Q219 63 248 92Q274 119 274 348Z"  />
<glyph unicode="M" horiz-adv-x="1985" d="M268 342L303 811Q310 897 310 978Q310 1073 297 1085Q268 1114 193 1114Q177 1114 172 1117T166 1135V1167Q166 1178 180 1178H569Q581 1178 586 1173T598 1150T612 1116Q645 1039 726 876T888 559T1020 315Q1084 434 1160 580T1304 860T1427 1110Q1437 1130 1445 1150T1456 1174T1466 1178H1839Q1849 1178 1849 1171V1135Q1849 1114 1835 1114Q1741 1114 1718 1092Q1706 1079 1706 995Q1706 940 1710 868L1739 397Q1757 115 1780 90Q1807 63 1905 63Q1925 63 1925 51V12Q1925 0 1905 0H1337Q1318 0 1312 2T1305 14V45Q1305 57 1311 60T1335 63Q1462 63 1493 94Q1511 111 1511 190Q1511 208 1510 241T1506 312T1501 397L1470 993Q1448 953 1346 758T1138 355T987 49Q978 28 974 19T965 5T952 0H918Q910 0 905 6T895 25T883 57Q857 110 778 268T643 539T515 787T397 993L373 418Q369 320 369 260Q369 106 387 88Q402 76 449 70T537 63Q561 63 561 45V14Q561 5 557 3T539 0H90Q72 0 72 14V49Q72 63 90 63H118Q199 63 223 88Q251 116 268 342Z"  />
<glyph unicode="N" horiz-adv-x="1536" d="M563 0H84Q68 0 68 18V49Q68 61 94 61Q231 61 262 92Q283 111 283 338V909Q283 1067 262 1087Q236 1114 102 1114Q81 1114 75 1118T68 1139V1163Q68 1168 73 1173T82 1178H496Q504 1178 510 1174T523 1159T537 1139Q583 1080 643 1003T808 795T1012 545T1171 354V938Q1171 990 1166 1032T1149 1087Q1122 1114 989 1114Q970 1114 966 1118T961 1133V1163Q961 1178 983 1178H1458Q1470 1178 1470 1163V1133Q1470 1122 1466 1118T1450 1114Q1307 1114 1288 1096Q1268 1075 1268 954V0Q1268 -16 1257 -16H1161Q1119 44 1074 102T986 214T866 362T770 479Q705 559 626 656T496 815T375 954V373Q375 291 381 197T403 86Q428 61 551 61Q582 61 582 43V16Q582 6 579 3T563 0Z"  />
<glyph unicode="O" horiz-adv-x="1430" d="M688 -25Q561 -25 453 18T265 141T143 328T100 559Q100 684 145 800T278 1007T486 1150T750 1202Q943 1202 1077 1120T1277 902T1343 610Q1343 491 1298 378T1168 174T961 29T688 -25ZM739 43Q831 43 899 90T1009 212T1070 378T1090 547Q1090 629 1075 718T1023 893T930 1034Q830 1137 705 1137Q594 1137 515 1065T395 877T354 633Q354 490 396 355T510 145Q562 96 621 70T739 43Z"  />
<glyph unicode="P" horiz-adv-x="1217" d="M526 965V594Q580 588 606 588Q742 588 825 668Q860 701 881 750T903 848Q903 963 829 1036Q757 1112 600 1112Q554 1112 530 1110Q529 1074 529 1045T526 965ZM526 524V317Q526 109 549 88Q566 71 608 67T723 63Q752 63 752 45V14Q752 0 733 0H94Q81 0 76 3T70 14V45Q70 63 96 63H122Q240 63 260 84Q291 115 291 424V727Q291 1061 264 1090Q248 1106 208 1110T94 1114Q82 1114 77 1117T72 1128V1161Q72 1178 84 1178H758Q845 1178 927 1150T1063 1067Q1101 1031 1124 977T1147 868Q1147 803 1125 749T1063 657Q991 587 893 553T648 519Q599 519 526 524Z"  />
<glyph unicode="Q" horiz-adv-x="1430" d="M707 1135Q529 1135 442 977T354 633Q354 505 382 398T462 211T586 87T741 43Q842 43 922 108T1046 287T1090 547Q1090 675 1062 783T982 969T860 1091T707 1135ZM1360 -170L1376 -205Q1376 -219 1362 -225Q1323 -243 1269 -252T1169 -262Q1004 -262 860 -192T635 -23Q481 -14 360 64T169 271T100 559Q100 718 176 865T403 1106T756 1200Q888 1200 993 1160T1163 1053Q1341 878 1341 623Q1341 485 1289 362T1144 149T932 16Q1043 -89 1122 -133T1270 -178Q1314 -178 1341 -166Q1349 -163 1352 -163Q1359 -163 1360 -170Z"  />
<glyph unicode="R" horiz-adv-x="1323" d="M248 406V846Q248 1069 221 1096Q202 1114 104 1114H76Q55 1114 55 1130V1169Q55 1178 66 1178H709Q841 1178 929 1141T1059 1039T1102 891Q1102 816 1066 758T967 662T831 606Q872 545 922 469T1018 324T1115 184T1186 92Q1215 63 1262 63Q1282 63 1282 49V18Q1282 0 1270 0H930Q793 276 592 573H485V379V286Q485 208 490 153T512 82Q531 63 655 63Q690 63 690 49V18Q690 0 674 0H68Q53 0 53 16V47Q53 63 76 63Q99 63 112 63T140 62Q204 62 223 82Q238 95 243 189T248 406ZM485 999V641H506Q619 641 698 671T815 758T854 891Q854 935 840 976T797 1044Q729 1113 587 1113Q547 1113 487 1108Q487 1071 487 1049T485 999Z"  />
<glyph unicode="S" horiz-adv-x="981" d="M70 39V336Q70 344 80 344H129Q140 344 144 338T152 319Q171 246 192 198T227 135Q315 43 442 43Q546 43 613 103T680 246Q680 316 631 365Q595 401 548 427T411 494T270 563T174 633Q80 727 80 856Q80 949 132 1028T289 1154T541 1202Q613 1202 697 1192T823 1169Q852 1159 852 1151V895Q852 872 836 872H793Q783 872 778 876T771 887T764 903Q742 973 728 1008T686 1069Q622 1133 506 1133Q444 1133 397 1105T326 1031T301 940Q301 867 360 805Q396 770 441 744T576 677T720 606T813 537Q901 446 901 319Q901 201 835 124T657 11T406 -25Q309 -25 243 -15T96 12Q81 15 76 20T70 39Z"  />
<glyph unicode="T" horiz-adv-x="1217" d="M504 471V965Q503 995 503 1021T500 1085H406Q324 1085 265 1034T176 881Q167 852 158 852H119Q113 852 111 858T109 883V1161Q109 1178 125 1178H1120Q1130 1178 1131 1175T1133 1163V868Q1133 852 1120 852H1085Q1074 852 1067 877Q1045 945 1017 990T936 1061T796 1087Q760 1087 741 1085Q741 1045 741 1023T739 973V477V389Q739 278 744 193T766 90Q784 73 822 68T915 63H942Q963 63 963 51V12Q963 0 942 0H297Q276 0 276 20V47Q276 58 281 60T305 63H347Q437 63 469 94Q490 115 497 205T504 434V471Z"  />
<glyph unicode="U" horiz-adv-x="1430" d="M258 408V899Q258 973 253 1024T227 1094Q207 1114 111 1114H84Q63 1114 63 1139V1171Q63 1178 82 1178H686Q700 1178 700 1169V1133Q700 1114 670 1114H633Q551 1114 526 1090Q506 1070 500 1018T494 895V573V503Q494 426 500 362T526 242T584 147Q622 112 670 95T772 78Q906 78 993 166Q1052 225 1071 321T1090 539V799Q1090 873 1082 967T1051 1085Q1022 1114 935 1114H895Q874 1114 874 1133V1169Q874 1178 899 1178H1362Q1380 1178 1380 1167V1135Q1380 1114 1360 1114H1333Q1245 1114 1221 1090Q1186 1055 1186 940V479Q1186 352 1158 261T1067 106Q1025 66 974 37T862 -7T731 -23Q659 -23 589 -8T461 37T367 104Q309 162 284 237T258 408Z"  />
<glyph unicode="V" horiz-adv-x="1323" d="M715 -23H612Q602 -23 594 -4T578 37Q297 759 238 905T137 1092Q115 1114 74 1114Q61 1114 57 1118T53 1133V1163Q53 1167 56 1172T66 1178H608Q625 1178 625 1163V1141Q625 1124 619 1119T584 1114Q513 1114 482 1100T451 1047Q451 1029 459 997Q497 861 739 240Q768 315 795 381T879 592T973 832T1024 977Q1038 1024 1038 1048Q1038 1089 1010 1101T911 1114Q874 1114 874 1133V1165Q874 1178 887 1178H1268Q1282 1178 1282 1167V1137Q1282 1114 1264 1114Q1243 1114 1217 1094T1174 1042Q1133 970 1086 864T964 577T832 251T743 25Q732 -5 731 -11T726 -20T715 -23Z"  />
<glyph unicode="W" horiz-adv-x="1985" d="M645 1169V1135Q645 1114 612 1114Q535 1114 501 1094T466 1026Q466 1009 473 977Q496 870 564 641T686 250Q774 430 1028 1139Q1036 1162 1039 1170T1049 1178H1122Q1133 1178 1143 1145Q1171 1066 1224 922T1315 677T1399 451T1475 246Q1567 525 1624 711T1700 991Q1705 1019 1705 1036Q1705 1080 1675 1097T1571 1114Q1548 1114 1548 1126V1163Q1548 1178 1565 1178H1929Q1946 1178 1946 1167V1139Q1946 1114 1925 1114Q1902 1114 1871 1088T1825 1024Q1782 921 1717 718T1593 316T1509 37Q1505 23 1502 7T1494 -16T1481 -23H1341Q1332 -23 1327 -11T1311 37Q1247 216 1147 479T1008 829Q970 730 941 655T867 463T781 235T711 41Q704 21 699 4T690 -18T678 -23H545Q532 -23 530 -18T514 25Q383 450 341 586T263 829T199 998T143 1087Q117 1114 76 1114Q57 1114 57 1135V1161Q57 1172 59 1175T72 1178H631Q645 1178 645 1169Z"  />
<glyph unicode="X" horiz-adv-x="1323" d="M782 668L1022 270Q1079 177 1138 120T1260 63Q1282 63 1282 51V16Q1282 0 1262 0H731Q719 0 715 2T711 10V47Q711 57 717 60T750 63Q798 63 818 71T839 102Q839 124 813 176T748 289L621 492L496 328Q426 238 392 185T358 104Q358 79 386 71T471 63Q496 63 496 53V18Q496 8 492 4T475 0H72Q57 0 57 12V47Q57 56 61 59T80 63Q146 63 205 118T344 276L573 571L371 893Q309 992 251 1053T133 1114Q120 1114 116 1118T111 1135V1165Q111 1178 131 1178H676Q696 1178 696 1165V1137Q696 1123 692 1119T666 1114Q550 1114 550 1073Q550 1055 578 1006L733 745L903 971Q952 1035 952 1068Q952 1114 850 1114Q825 1114 825 1135V1167Q825 1174 829 1176T844 1178H1221Q1241 1178 1241 1163V1133Q1241 1114 1221 1114Q1126 1114 991 940L782 668Z"  />
<glyph unicode="Y" horiz-adv-x="1323" d="M788 473V197Q788 107 807 88Q832 63 956 63Q977 63 977 47V10Q977 0 954 0H373Q362 0 362 10V47Q362 63 393 63Q511 63 537 88Q555 106 555 221V463L238 971Q191 1045 157 1079T76 1114Q55 1114 55 1128V1165Q55 1178 70 1178H606Q623 1178 623 1165V1130Q623 1114 600 1114Q481 1114 481 1057Q481 1035 498 1006L752 569L991 952Q1034 1020 1034 1056Q1034 1114 901 1114Q886 1114 882 1119T877 1141V1169Q877 1178 893 1178H1270Q1282 1178 1282 1169V1135Q1282 1114 1264 1114Q1229 1114 1200 1093T1146 1038T1087 950L788 473Z"  />
<glyph unicode="Z" horiz-adv-x="981" d="M932 272V16Q932 0 909 0H66Q51 0 48 2T45 16V61Q45 69 55 82T76 113Q182 280 372 599T655 1087H408Q326 1087 267 1047T166 924Q163 917 161 913T156 905T147 901H113Q100 901 100 924V1169Q100 1178 127 1178H920Q942 1178 942 1169V1116Q942 1103 932 1086T903 1038Q837 930 769 817T599 533T426 242T336 88H567Q663 88 723 107T817 167T868 272Q873 299 887 299H920Q932 299 932 272Z"  />
<glyph unicode="[" horiz-adv-x="662" d="M190 53V602Q190 765 187 923T179 1184T174 1277Q174 1294 195 1294H588Q602 1294 606 1293T610 1283V1249Q610 1241 606 1238T586 1235Q478 1235 416 1221Q408 1060 408 870V-84Q408 -222 409 -295T416 -467Q511 -479 584 -479Q610 -479 610 -496V-528Q610 -541 588 -541H190Q174 -541 174 -522Q174 -540 182 -318T190 53Z"  />
<glyph unicode="\" horiz-adv-x="768" d="M160 1323L780 -569H631L12 1323H160Z"  />
<glyph unicode="]" horiz-adv-x="662" d="M483 590V141Q483 26 485 -92T494 -368T500 -518Q500 -539 485 -539H78Q66 -539 66 -522V-492Q66 -479 94 -479Q190 -479 260 -467Q268 -335 268 -270V573Q268 654 268 720T269 895Q269 1083 264 1223Q207 1237 92 1237Q76 1237 72 1239T68 1247V1288Q68 1294 84 1294H492Q504 1294 504 1272Q504 1265 499 1143T489 855T483 590Z"  />
<glyph unicode="^" horiz-adv-x="1190" d="M147 666L557 1384H639L1044 666H885L590 1178L299 666H147Z"  />
<glyph unicode="_" horiz-adv-x="1024" d="M1040 -256H-16V-154H1040V-256Z"  />
<glyph unicode="`" horiz-adv-x="682" d="M119 1309H342L446 963H414L119 1309Z"  />
<glyph unicode="a" horiz-adv-x="981" d="M578 250V428Q440 425 362 373T283 233Q283 177 317 138T408 98Q451 98 491 124T554 188T578 250ZM172 592L137 608Q130 609 130 618Q130 625 133 635Q152 683 183 722T262 791T372 839T514 856Q594 856 658 830T762 742T801 580Q801 569 797 446T793 268Q793 153 803 84Q807 59 858 59H920Q936 59 936 53V10Q936 0 928 0H807Q742 0 680 -6Q642 -8 619 -10T592 -12Q585 -12 582 -9T575 8Q575 41 575 64T573 113Q504 58 469 34T381 -10T266 -31Q172 -31 115 33T57 193Q57 233 75 278T125 354Q152 381 193 405T288 445T410 471T575 487Q575 494 575 500T576 515Q576 745 393 745Q324 745 273 711T193 614Q182 592 172 592Z"  />
<glyph unicode="b" horiz-adv-x="1217" d="M422 594V190Q422 120 473 78T612 35Q690 35 757 77T864 199T903 377Q903 483 867 563T768 687T631 731Q485 731 422 594ZM205 666V913Q205 1026 204 1081T196 1175T178 1225Q156 1247 119 1247Q95 1247 91 1248T86 1260V1292Q86 1307 98 1307H174Q224 1307 318 1314T422 1321Q434 1321 434 1303Q434 1301 429 1137T424 868V713Q583 856 758 856Q848 856 919 821T1037 731T1108 606T1133 473Q1133 325 1064 210T866 32T565 -31Q456 -31 350 -13T182 31Q193 75 197 176T203 396T205 666Z"  />
<glyph unicode="c" horiz-adv-x="874" d="M801 195L827 180Q833 177 833 172Q833 168 825 150Q799 77 709 23T498 -31Q348 -31 219 68T90 369Q90 511 162 622T357 795T631 856Q718 856 801 838Q817 835 817 819V797V588Q817 567 809 567H768Q768 568 767 570T763 577T758 588Q743 643 712 688T637 757T541 782Q480 782 428 746T344 645T313 496Q313 383 345 287T441 132T590 74Q647 74 697 106T776 184Q783 198 792 198Q797 198 801 195Z"  />
<glyph unicode="d" horiz-adv-x="1217" d="M809 829V1051Q809 1200 780 1229Q760 1249 698 1249H676Q668 1249 666 1251T664 1262V1288Q664 1309 680 1309H784Q846 1309 932 1316T1020 1323Q1034 1323 1034 1309Q1034 1319 1030 1231T1026 1051V397Q1026 345 1030 235T1047 59H1147Q1167 59 1167 45V12Q1167 3 1161 2T1135 0H1032Q1011 0 998 -1T963 -3T913 -6Q827 -14 825 -14Q817 -14 817 6V123Q657 -31 483 -31Q381 -31 306 6T185 103T119 230T98 360Q98 589 244 733Q299 788 383 822T612 856Q735 856 809 829ZM811 274V637Q727 793 586 793Q516 793 458 755T364 638T328 451Q328 347 362 266T461 138T614 92Q669 92 714 118T785 187T811 274Z"  />
<glyph unicode="e" horiz-adv-x="981" d="M332 565H645Q664 565 664 610Q664 696 620 743T520 791Q450 791 398 730T332 565ZM844 213L877 195Q885 190 885 186Q885 182 872 160Q821 72 719 21T502 -31Q383 -31 289 22T139 170T84 379Q84 523 149 632T320 798T547 856Q639 856 721 822T854 720T905 557Q905 502 879 502H322Q319 472 319 444Q319 341 357 262T464 142T618 100Q681 100 736 129T825 205Q834 215 838 215Q840 215 844 213Z"  />
<glyph unicode="f" horiz-adv-x="662" d="M86 827H193Q193 850 191 890T189 948Q189 1031 210 1093T291 1214Q338 1260 420 1291T600 1323Q670 1323 734 1312T799 1290V1077Q799 1063 788 1063H754Q741 1063 733 1108Q721 1177 678 1217T582 1257Q528 1257 485 1214Q454 1183 438 1133T418 1025T414 873V827H612Q628 827 631 813V770Q631 760 621 760H418V260Q418 175 424 68Q474 63 513 61T584 59H602Q614 59 614 45V10Q614 0 600 0H96Q76 0 76 6V49Q76 59 98 59Q117 59 141 65T170 76Q201 107 201 342V369Q201 482 200 581T195 760H86Q76 760 76 770V817Q76 825 77 826T86 827Z"  />
<glyph unicode="g" horiz-adv-x="1110" d="M551 788Q494 788 457 752T404 658T387 537Q387 392 433 313T561 233Q640 236 684 305T729 498Q729 570 710 636T651 745T551 788ZM340 -154Q314 -189 301 -230T287 -301Q289 -391 352 -449T520 -508Q618 -508 691 -480T801 -409T838 -317Q838 -257 792 -233T666 -202T494 -188T340 -154ZM1004 766H952Q933 766 850 750Q958 657 958 512Q958 444 936 391T872 297Q808 233 746 213T580 172T449 123Q436 111 436 94Q436 74 449 59Q475 35 558 24T722 6T877 -22T993 -84Q1018 -107 1032 -143T1047 -211Q1047 -282 1004 -347T881 -465T694 -546T473 -575Q343 -575 256 -541T130 -456T90 -348Q90 -279 137 -222T287 -111Q240 -57 240 8Q240 74 282 113T430 188V193Q341 215 280 263T189 372T160 500Q160 558 188 622T268 738T399 823T575 856Q607 856 707 840Q830 825 848 825H1001Q1014 825 1014 817V778Q1014 766 1004 766Z"  />
<glyph unicode="h" horiz-adv-x="1217" d="M442 553V170Q442 118 449 63Q529 59 561 59Q575 59 575 45V10Q575 0 561 0H119Q103 0 98 3T92 14V45Q92 59 115 59Q169 59 195 82Q229 117 229 336V1049Q229 1153 226 1182T209 1225Q186 1247 123 1247Q106 1247 106 1257V1298Q106 1307 125 1307H195Q250 1307 349 1314T451 1321Q461 1321 461 1305Q461 1334 453 1151T444 696Q491 743 546 780T659 837T776 856Q846 856 897 835T975 786Q1005 757 1019 713T1034 604Q1034 588 1030 478T1026 305Q1027 262 1028 220T1030 150T1031 107T1032 66Q1073 59 1155 59Q1169 59 1169 45V14Q1169 0 1157 0H690Q674 0 674 10V43Q674 59 702 59Q748 59 776 82Q813 121 813 350V487Q813 597 768 657T643 717Q562 717 502 664T442 553Z"  />
<glyph unicode="i" horiz-adv-x="662" d="M240 305V600Q240 729 217 752Q211 758 187 764T137 770H109Q92 770 92 786V813Q92 829 113 829H240Q262 829 289 830T335 833T373 836Q432 842 449 842Q465 842 465 819Q465 814 460 718T455 578V305V194Q455 103 459 72Q477 70 508 65T563 59H594Q607 59 610 58T614 45V18Q614 0 594 0H109Q97 0 92 3T86 14V41Q86 59 98 59H123Q178 59 203 82Q240 119 240 305ZM330 1288Q388 1288 426 1249T465 1153Q465 1097 427 1058T330 1018Q273 1018 234 1057T195 1153Q195 1210 234 1249T330 1288Z"  />
<glyph unicode="j" horiz-adv-x="662" d="M238 2V358Q238 708 207 739Q182 766 129 766H106Q94 766 94 786V815Q94 825 104 825H172Q294 825 375 834Q461 842 446 842Q461 842 461 821Q461 793 461 773T459 713T457 630T455 561V360Q455 316 456 258T459 147T460 62T461 -25V-101Q461 -186 455 -249T430 -364T371 -455Q260 -569 72 -569Q30 -569 -20 -561T-70 -547V-383Q-70 -362 -55 -362H-25Q-16 -362 -13 -366T-8 -383Q-4 -435 31 -469T111 -504Q134 -504 151 -496T190 -465Q220 -435 229 -365T238 -155V2ZM332 1286Q389 1286 428 1247T467 1151Q467 1095 429 1056T332 1016Q275 1016 236 1055T197 1151Q197 1209 236 1247T332 1286Z"  />
<glyph unicode="k" horiz-adv-x="1217" d="M1151 0H690Q678 0 675 2T672 10V43Q672 53 675 56T690 59H729Q743 59 750 67T758 88Q758 109 715 172T599 325T461 492Q577 569 625 604T700 666Q733 699 733 726Q733 766 674 766Q655 766 655 782V815Q655 825 674 825H1067Q1085 825 1085 813V782Q1085 766 1073 766Q976 766 799 649L664 555L893 262Q935 210 979 166Q1030 115 1080 87T1161 59Q1171 59 1171 47V10Q1171 4 1167 2T1151 0ZM444 1059V590V331Q444 288 444 252T444 157T446 68Q498 59 522 59H561Q578 59 578 45V18Q578 7 572 4T551 0H113Q92 0 92 16V47Q92 56 95 57T121 59Q159 59 188 88Q208 108 218 211T229 465V969Q229 1196 199 1227Q180 1245 141 1245H119Q109 1245 109 1266V1294Q109 1301 112 1303T125 1305H147Q187 1305 309 1314T440 1323Q455 1323 455 1305Q455 1306 450 1212T444 1059Z"  />
<glyph unicode="l" horiz-adv-x="662" d="M240 471V918Q240 1040 232 1126T205 1229Q187 1247 133 1247H113Q106 1247 104 1251T102 1270V1296Q102 1307 117 1307H199Q275 1307 369 1315T455 1323Q463 1323 463 1303Q463 1303 459 1167T455 918V362Q455 303 455 270T454 197Q454 114 457 63Q547 59 594 59Q612 59 612 49V18Q612 0 594 0H102Q91 0 88 3T84 16V45Q84 59 94 59H113Q170 59 199 84Q221 107 230 234T240 471Z"  />
<glyph unicode="m" horiz-adv-x="1772" d="M231 319V567Q231 729 215 745Q196 766 168 766H115Q102 766 102 772V811Q102 825 115 825H139Q174 825 221 827T336 831Q416 838 442 838Q449 838 450 834T451 807L449 686Q532 768 618 812T788 856Q864 856 926 815T1008 700Q1046 739 1098 775T1211 833T1341 856Q1407 856 1462 830T1550 745T1583 598V238Q1583 186 1587 68Q1654 59 1696 59H1710Q1726 59 1726 43V8Q1726 0 1706 0H1255Q1240 0 1237 2T1233 16V43Q1233 59 1247 59H1272Q1315 59 1335 80Q1351 96 1359 160T1368 289V432Q1368 536 1357 590T1311 680Q1292 699 1261 712T1202 725Q1136 725 1079 681T1016 582V309Q1016 147 1022 70Q1071 59 1116 59H1137Q1142 59 1144 55T1147 47V12Q1147 0 1124 0H676Q664 0 664 12V37Q664 59 680 59Q746 59 768 80Q782 94 789 143T798 238T801 328V424Q801 517 791 574T745 668Q728 687 699 699T643 711Q602 711 561 690T490 636T449 567V254Q449 164 455 66Q475 63 526 59H565Q571 59 574 55T578 45V10Q578 3 574 2T555 0H109Q100 0 98 2T96 10V45Q96 59 111 59H135Q180 59 197 76Q231 111 231 319Z"  />
<glyph unicode="n" horiz-adv-x="1217" d="M1028 643V313Q1028 229 1029 168T1034 66Q1106 59 1128 59H1149Q1171 59 1171 49V20Q1171 6 1168 3T1153 0H690Q681 0 679 3T676 16V41Q676 59 690 59Q752 59 780 84Q813 117 813 332V430Q813 521 803 578T758 670Q707 719 637 719Q593 719 542 690T459 616Q454 610 448 541T442 414V258Q442 218 446 157T451 68Q466 65 539 59H563Q578 59 578 43V16Q578 4 577 2T567 0H121Q103 0 99 2T94 16V47Q94 59 111 59Q170 59 195 82Q214 103 221 163T229 295V485V525Q229 729 211 748Q193 766 143 766H119Q106 766 106 782V813Q106 825 119 825H154Q247 825 342 834Q361 835 381 836T409 838T425 839T438 840Q451 840 451 825V698Q528 775 615 815T786 856Q854 856 909 832T996 760T1028 643Z"  />
<glyph unicode="o" horiz-adv-x="1110" d="M553 -31Q353 -31 229 86T104 389Q104 506 160 613T326 788T586 856Q691 856 773 822T912 731T999 599T1030 444Q1030 346 996 259T899 107T749 6T553 -31ZM567 33Q674 33 733 122T793 387Q793 509 769 600T692 741T563 791Q458 791 401 700T344 461Q344 307 373 210T453 73T567 33Z"  />
<glyph unicode="p" horiz-adv-x="1217" d="M442 549V125Q523 33 629 33Q700 33 763 73T864 192T903 383Q903 458 884 523T831 636T747 709T639 735Q584 735 539 709T468 640T442 549ZM227 -143V354Q227 451 225 535T216 681T201 752Q187 766 137 766H109Q94 766 94 774V817Q94 825 109 825H211Q282 825 356 834Q442 842 434 842Q442 839 442 823V709Q583 856 768 856Q880 856 963 801T1090 652T1135 453Q1135 297 1060 187T868 23T635 -31Q546 -31 442 8V-50V-167Q442 -270 443 -334T453 -479Q494 -481 575 -481H602Q612 -481 612 -498V-524Q612 -541 600 -541H104Q94 -541 94 -528V-498Q94 -481 109 -481Q178 -481 201 -459Q227 -432 227 -143Z"  />
<glyph unicode="q" horiz-adv-x="1217" d="M999 567V-365Q999 -420 1006 -477Q1066 -481 1100 -481H1139Q1145 -481 1150 -486T1155 -498V-532Q1155 -541 1130 -541H623Q602 -541 602 -532V-498Q602 -481 616 -481Q725 -481 752 -453Q771 -433 776 -341T782 -80V117Q644 -29 471 -29Q310 -29 215 84T119 373Q119 474 152 559T255 713T423 818T653 856Q843 856 1016 801Q1009 748 999 567ZM782 213V641Q782 707 733 750T616 793Q544 793 491 762T406 681T359 569T344 451Q344 299 415 196T598 92Q651 92 699 124T782 213Z"  />
<glyph unicode="r" horiz-adv-x="874" d="M217 326V483Q217 725 193 752Q176 766 109 766H94Q82 766 82 786V815Q82 825 92 825H119Q168 825 324 831Q395 838 422 838Q430 838 430 823V801V641H434Q550 856 737 856Q752 856 774 851T799 842Q807 831 807 780V721Q807 707 805 681T801 629T797 588Q797 582 784 582H748Q741 582 740 584T737 598Q734 649 707 675T637 702Q582 702 533 659T430 526V338Q430 183 440 68Q514 59 565 59H610Q623 59 623 39V14Q623 0 606 0H94Q85 0 83 3T80 14V39Q80 59 92 59H121Q159 59 178 78Q217 117 217 326Z"  />
<glyph unicode="s" horiz-adv-x="768" d="M88 18V221Q88 236 102 236H137Q145 236 145 219Q145 160 194 97T332 33Q395 33 440 72T485 164Q485 213 449 250Q423 276 392 294T300 345T211 396T152 444Q84 512 84 598Q84 668 126 727T251 821T455 856Q511 856 563 850T643 835T672 823V610Q672 604 662 604H627Q614 604 614 614Q614 680 564 736T438 793Q373 793 337 754T301 666Q301 616 338 580Q366 552 428 520T551 455T649 385Q715 316 715 233Q715 161 670 101T537 6T332 -29Q256 -29 172 -13T88 18Z"  />
<glyph unicode="t" horiz-adv-x="662" d="M606 760H410Q410 727 409 656T405 484T403 330Q403 240 407 188T427 110T475 84Q504 84 520 99T553 139T580 164L608 154Q616 151 616 137Q616 90 553 31T387 -29Q295 -29 239 20T182 197Q182 253 186 406T190 602V760H61Q41 760 41 780V829Q41 850 78 850Q157 850 229 920T352 1114Q360 1130 375 1130H412Q424 1130 424 1110Q424 1108 419 1020T412 825H606Q625 825 625 815V780Q625 768 621 764T606 760Z"  />
<glyph unicode="u" horiz-adv-x="1217" d="M420 451V338Q420 104 580 104Q656 104 724 158T793 297V541Q793 606 787 667T768 741Q746 766 709 766H672Q662 766 662 780V817Q662 825 678 825H764Q847 825 924 834Q939 835 955 836T978 838T991 839T1004 840Q1016 840 1016 819Q1016 802 1012 697T1008 571V256Q1008 173 1022 70Q1079 59 1126 59H1155Q1165 59 1165 47V14Q1165 0 1153 0H1034Q941 0 879 -6Q842 -8 822 -10T803 -12Q791 -12 791 3Q792 11 792 17T793 35V135Q631 -29 455 -29Q387 -29 329 -2T235 82T199 223Q199 246 203 358T207 535Q207 714 180 741Q153 766 119 766H84Q66 766 66 784V811Q66 825 86 825H170Q257 825 342 834Q359 835 377 836T403 838T417 839T428 840Q438 840 438 823Q438 791 429 635T420 451Z"  />
<glyph unicode="v" horiz-adv-x="1110" d="M465 70L242 582Q183 709 150 745Q129 766 84 766Q66 766 66 780V813Q66 825 82 825H535Q553 825 553 813V778Q553 766 539 766Q487 766 462 754T436 702Q436 687 458 625T498 524L657 166L788 475Q806 516 829 586T852 674Q852 723 823 744T727 766Q716 766 713 770T709 784V815Q709 825 721 825H1055Q1071 825 1071 813V776Q1071 769 1050 765T1012 743Q994 725 955 653T899 543L700 88Q690 63 674 17T649 -29H510Q506 -29 500 -17T485 20T465 70Z"  />
<glyph unicode="w" horiz-adv-x="1536" d="M385 70L244 473Q196 617 160 691T66 766Q53 766 53 780V813Q53 825 72 825H473Q494 825 494 813V780Q494 771 491 769T473 766Q400 766 400 707Q400 672 430 586L559 209L727 711Q741 746 750 777T764 817T774 825H918Q928 825 933 818T947 783T983 680L1161 209L1257 530Q1265 552 1279 610T1294 694Q1294 766 1208 766Q1196 766 1196 786V817Q1196 825 1210 825H1495Q1507 825 1507 817V774Q1507 765 1496 765T1472 762T1438 737Q1421 720 1395 666T1345 547T1311 449L1190 70Q1184 50 1176 23T1162 -16T1151 -29H1038Q1029 -29 1018 -3T975 106L776 625L604 129Q587 80 576 45T556 -9T539 -29H426Q417 -29 385 70Z"  />
<glyph unicode="x" horiz-adv-x="1110" d="M281 186L467 391L315 600Q311 607 273 654T217 717Q169 767 119 767Q111 767 107 767T98 766Q86 766 86 778V813Q86 825 102 825H563Q569 825 575 823T582 815V782Q582 766 563 766H526Q492 766 492 741Q492 717 522 674L629 526L750 666Q776 695 776 721Q776 741 762 753T727 766H702Q688 766 688 782V817Q688 825 702 825H1034Q1040 825 1045 821T1051 813V780Q1051 766 1030 766Q1002 766 962 744T885 690T825 635L670 471L795 293Q854 213 890 168T954 100T1005 68T1055 59Q1069 59 1069 47V16Q1069 0 1047 0H592Q579 0 575 3T571 16V39Q571 59 592 59H623Q668 59 668 91Q668 111 649 137L510 332L395 201Q344 141 344 111Q344 92 361 76T406 59H432Q444 59 444 47V10Q444 7 441 4T434 0H80Q66 0 66 6V49Q66 59 78 59Q163 59 281 186Z"  />
<glyph unicode="y" horiz-adv-x="1110" d="M555 -102L236 580Q221 614 192 666T143 737Q114 766 87 766Q82 766 80 766T74 765Q66 765 66 778V815Q66 825 82 825H516Q541 825 541 811V780Q541 766 510 766Q471 766 450 757T428 719Q428 703 448 645T485 549L662 164L801 512Q819 554 843 625T868 711Q868 741 840 753T780 766H745Q731 766 731 780V811Q731 825 745 825H1049Q1065 825 1065 815V772Q1065 766 1054 765T1034 762T1010 743Q981 707 926 587T813 330L625 -115Q580 -224 556 -280T502 -387T436 -475Q383 -528 331 -548T217 -569H143Q113 -569 104 -562T94 -526Q94 -506 94 -488T92 -433T90 -360T88 -309Q88 -291 96 -291H137Q142 -291 145 -299T155 -332T166 -369Q176 -400 189 -412T244 -424Q313 -424 360 -403T437 -341T501 -226T555 -102Z"  />
<glyph unicode="z" horiz-adv-x="981" d="M125 825H887Q899 825 899 815V743Q839 678 767 589T627 416Q597 378 536 302T434 170T367 76H637Q758 76 801 119Q848 166 848 223Q848 240 858 240H893Q905 240 905 227V14Q905 0 893 0H94Q78 0 78 18V70Q118 113 166 172T269 301T356 410Q459 540 489 578T623 754H365Q268 754 217 707Q200 689 185 649T170 588Q170 569 160 569H125Q113 569 113 582V807Q113 825 125 825Z"  />
<glyph unicode="{" horiz-adv-x="807" d="M717 1278V1233Q623 1215 573 1166T522 1042Q522 977 547 881Q571 779 571 717Q571 594 481 502Q438 456 391 432T244 381V377Q342 349 392 322T487 250Q528 207 550 154T573 47Q573 -3 549 -109Q524 -208 524 -272Q524 -359 569 -408T717 -477V-524H684Q579 -524 492 -480T355 -359T305 -190Q305 -133 336 -18Q358 75 358 129Q358 315 164 348V408Q358 439 358 633Q358 697 338 776Q307 891 307 946Q307 1027 353 1102T479 1221Q534 1252 582 1263T717 1278Z"  />
<glyph unicode="|" horiz-adv-x="1079" d="M473 1229H606V-473H473V1229Z"  />
<glyph unicode="}" horiz-adv-x="807" d="M90 -524V-477Q183 -461 234 -412T285 -287Q285 -230 260 -127Q236 -25 236 37Q236 159 326 252Q371 300 420 324T563 373V377Q500 396 456 413T381 453T322 506Q280 548 257 601T233 707Q233 753 258 862Q283 968 283 1026Q283 1115 238 1163T90 1231V1278H123Q228 1278 315 1234T452 1113T502 944Q502 890 471 772Q449 679 449 625Q449 438 643 408V346Q449 315 449 123Q449 60 469 -23Q500 -142 500 -190Q500 -246 479 -298T421 -393T328 -467Q272 -497 226 -508T90 -524Z"  />
<glyph unicode="~" horiz-adv-x="1366" d="M1171 815H1223Q1220 680 1149 596T967 512Q924 512 887 520T784 553T590 631Q514 663 462 678T373 694Q228 694 195 514H143Q149 604 166 652T223 743Q256 777 300 797T389 817Q438 817 488 805T621 760Q653 747 774 696Q922 633 987 633Q1065 633 1113 680T1171 815Z"  />
<glyph unicode="&#xA0;" horiz-adv-x="492" />
<glyph unicode="&#xA1;" horiz-adv-x="555" d="M287 786Q344 786 384 746T424 649Q424 592 384 552T287 512Q230 512 190 552T150 649Q150 706 190 746T287 786ZM256 436H315L424 -332Q424 -444 293 -444Q150 -444 150 -361Q150 -354 152 -336L256 436Z"  />
<glyph unicode="&#xA2;" horiz-adv-x="874" d="M344 2L213 -371H158L297 25Q104 140 104 371Q104 468 140 553T245 704T400 807T584 850L723 1245H778L643 854Q733 854 811 838Q834 831 834 793V590Q834 567 821 567H793Q785 567 782 571T772 592Q750 662 713 707T612 774L410 184Q482 74 602 74Q659 74 712 107T793 184Q801 197 813 197L840 182Q847 179 847 170Q847 161 842 150Q826 106 781 64T668 -3T526 -29Q431 -29 344 2ZM375 250L561 782Q477 781 424 736T349 627T326 494Q326 356 375 250Z"  />
<glyph unicode="&#xA3;" horiz-adv-x="981" d="M309 174Q265 194 223 194Q167 194 133 160Q108 134 108 105Q108 77 130 57T184 37Q289 37 309 174ZM102 633H223Q199 774 199 829Q199 942 246 1027T382 1160T588 1208Q715 1208 819 1155Q840 1145 840 1130V946Q840 942 825 942H788Q780 942 776 961Q771 993 757 1023T718 1081T657 1125T575 1141Q504 1141 461 1091T418 965Q418 925 442 805T469 635H764Q772 635 772 625V582Q772 569 762 569H477Q477 558 477 549T478 524Q478 384 436 236Q595 166 698 166Q775 166 819 192T879 260Q884 272 899 272H930Q944 268 944 254Q927 123 851 53T678 -18Q609 -18 544 10T381 119Q349 55 297 16T186 -23Q126 -23 89 14T51 104Q51 151 76 189T151 250T266 273Q287 273 311 270Q311 315 290 402T240 567H102Q90 567 90 584V623Q90 633 102 633Z"  />
<glyph unicode="&#xA4;" horiz-adv-x="1401" d="M956 1024L1083 1151L1171 1061L1044 934Q1100 854 1117 802T1135 664Q1135 576 1118 525T1044 391L1171 264L1083 176L956 301Q880 248 825 230T684 211Q598 211 543 229T412 301L285 176L195 264L322 391Q284 444 265 484T239 564T231 664Q231 721 238 760T265 841T322 936L195 1061L285 1151L412 1024Q492 1080 545 1097T684 1114Q741 1114 781 1107T861 1082T956 1024ZM358 664Q358 575 402 500T520 382T684 338Q772 338 846 381T964 500T1008 664Q1008 729 982 789T914 892T810 961T684 987Q595 987 521 944T402 826T358 664Z"  />
<glyph unicode="&#xA5;" horiz-adv-x="1323" d="M791 475L788 473V453V395V356V317V276Q788 172 791 136T807 88Q835 63 940 63H956Q977 63 977 47V10Q977 0 954 0L373 -2Q362 -2 362 10V47Q362 63 393 63H418Q486 63 512 72T547 112T555 221V463L547 475H121V557H496L344 801H121V881H293L238 971Q186 1055 154 1083T76 1114Q55 1114 55 1128V1165Q55 1178 70 1178H606Q623 1178 623 1165V1130Q623 1114 600 1114Q535 1112 508 1099T481 1057Q481 1031 498 1006L569 881H946L991 952Q1034 1023 1034 1059Q1034 1109 934 1112L901 1114Q885 1114 881 1119T877 1141V1169Q877 1180 883 1180H885H887V1178H889H891H1270Q1282 1178 1282 1169V1135Q1282 1114 1264 1114Q1230 1112 1207 1099T1159 1054T1087 950L1044 881H1200V801H995L842 557H1200V475H791ZM897 801H616L752 569L897 801Z"  />
<glyph unicode="&#xA6;" horiz-adv-x="1079" d="M473 250H606V-473H473V250ZM473 1229H606V504H473V1229Z"  />
<glyph unicode="&#xA7;" horiz-adv-x="981" d="M369 690Q311 655 281 601T250 483Q250 435 271 394T339 308T482 188T631 68Q682 94 717 152T752 276Q752 344 708 398T547 544T369 690ZM799 1020H764Q758 1020 755 1025T750 1042Q737 1151 679 1205T541 1260Q464 1260 411 1210T358 1090Q358 1024 404 976T573 834T778 657Q835 601 867 525T899 379Q899 268 837 173T678 20Q719 -18 749 -64T795 -161T813 -264Q813 -354 760 -424T621 -532T446 -569Q361 -569 299 -550T188 -498V-272Q188 -264 199 -264H244Q245 -264 248 -285Q261 -366 295 -415T372 -484T459 -504Q528 -504 584 -459T641 -332Q641 -269 597 -222T434 -84T240 82Q100 221 100 377Q100 439 123 504T195 629T319 737Q186 874 186 1028Q186 1107 236 1175T371 1284T555 1325Q704 1325 809 1257V1034Q809 1020 799 1020Z"  />
<glyph unicode="&#xA8;" horiz-adv-x="682" d="M166 1180Q212 1180 243 1148T274 1071Q274 1027 243 995T166 963Q119 963 87 995T55 1071Q55 1116 87 1148T166 1180ZM518 1180Q563 1180 595 1148T627 1071Q627 1027 595 995T518 963Q474 963 442 995T410 1071Q410 1116 442 1148T518 1180Z"  />
<glyph unicode="&#xA9;" horiz-adv-x="1530" d="M1100 1106V842H1063Q1049 910 1015 958T930 1031T817 1057Q693 1057 625 962T557 694Q557 558 588 478T692 354Q751 319 811 319Q960 319 1073 459V387Q949 260 754 260Q634 260 537 312T387 457T334 668Q334 762 366 843T458 984T598 1076T774 1108Q860 1108 971 1067Q1000 1055 1016 1055Q1057 1055 1063 1106H1100ZM766 1386Q958 1386 1121 1291T1380 1032T1475 678Q1475 486 1380 323T1121 65T766 -31Q574 -31 411 64T151 322T55 678Q55 870 150 1032T410 1290T766 1386ZM766 1298Q638 1298 526 1250T328 1117T194 917T145 678Q145 554 193 440T327 240T527 106T766 57Q890 57 1005 106T1205 240T1338 437T1386 678Q1386 806 1338 919T1205 1117T1007 1250T766 1298Z"  />
<glyph unicode="&#xAA;" horiz-adv-x="641" d="M381 938V1049Q193 1035 193 924Q193 884 216 860T276 836Q317 836 348 870Q381 903 381 938ZM485 772L440 768Q411 768 395 764H391Q381 764 379 827V836V846Q309 791 270 773T184 754Q122 754 85 792T47 893Q47 982 127 1028T379 1085V1112Q379 1179 349 1215T262 1251Q169 1251 131 1159Q126 1151 123 1151H121L98 1163Q94 1163 94 1174Q94 1183 102 1194Q170 1321 338 1321Q524 1321 524 1143Q524 1120 522 1079Q521 1055 521 1031T518 971V948Q518 903 528 815Q550 811 565 811H569H582Q610 811 610 803V782Q610 774 600 774H545L485 772Z"  />
<glyph unicode="&#xAB;" horiz-adv-x="981" d="M59 424L424 809Q430 815 437 821T448 827Q452 827 455 823L479 801Q482 797 482 791Q482 787 473 764L295 414L471 61Q481 41 481 38Q481 32 475 27L451 2Q449 0 448 0Q442 0 426 16L66 397Q54 409 54 415Q54 419 59 424ZM512 426L877 813Q891 827 895 827Q899 827 903 823L928 799Q932 795 932 789Q932 787 931 783T927 774T922 764L745 414L915 68Q931 40 931 38Q931 34 928 31L903 6Q899 2 895 2Q889 2 877 14L514 397Q506 408 506 414Q506 420 512 426Z"  />
<glyph unicode="&#xAC;" horiz-adv-x="1366" d="M139 975H1227V356H1096V844H139V975Z"  />
<glyph unicode="&#xAD;" horiz-adv-x="662" d="M76 508H606Q625 508 625 489V346Q625 330 622 326T606 322H76Q59 322 59 344V483Q59 508 76 508Z"  />
<glyph unicode="&#xAE;" horiz-adv-x="1530" d="M385 1090H748Q897 1090 968 1064T1077 969Q1104 923 1104 870Q1104 796 1057 742T924 664L1061 414Q1090 365 1112 344T1165 315V281H924L719 649H674V451Q674 367 695 343T793 315V281H371V315H377Q436 315 455 343T475 451V924Q475 975 469 1002T443 1041T385 1055V1090ZM674 1047V700Q696 696 729 696Q797 696 843 746T889 874Q889 1047 711 1047H674ZM766 1386Q958 1386 1121 1291T1380 1032T1475 678Q1475 486 1380 323T1121 65T766 -31Q574 -31 411 64T151 322T55 678Q55 870 150 1032T410 1290T766 1386ZM766 1298Q638 1298 526 1250T328 1117T194 917T145 678Q145 554 193 440T327 240T527 106T766 57Q890 57 1005 106T1205 240T1338 437T1386 678Q1386 806 1338 919T1205 1117T1007 1250T766 1298Z"  />
<glyph unicode="&#xAF;" horiz-adv-x="1024" d="M1045 1332H-11V1434H1045V1332Z"  />
<glyph unicode="&#xB0;" horiz-adv-x="819" d="M410 1384Q503 1384 583 1337T709 1211T756 1038Q756 945 710 865T583 739T410 692Q316 692 236 738T110 865T63 1038Q63 1132 109 1211T235 1337T410 1384ZM410 1253Q321 1253 258 1190T195 1038Q195 950 258 888T410 825Q499 825 562 888T625 1038Q625 1127 562 1190T410 1253Z"  />
<glyph unicode="&#xB1;" horiz-adv-x="1366" d="M139 895H616V1374H748V895H1227V764H748V287H616V764H139V895ZM139 86H1227V-45H139V86Z"  />
<glyph unicode="&#xB2;" horiz-adv-x="662" d="M117 1085L86 1100Q80 1102 80 1108Q80 1115 84 1126Q116 1203 187 1249T365 1296Q479 1296 537 1239T596 1096Q596 1029 566 971T484 861T350 743T190 616V612H449Q510 612 531 632T553 702Q553 717 563 717H598Q612 717 612 707V483Q612 475 602 475H68Q61 475 61 485V582Q61 585 82 602Q179 677 253 742T382 887T436 1044Q436 1116 393 1154T295 1192Q252 1192 209 1167T137 1096Q131 1083 124 1083Q121 1083 117 1085Z"  />
<glyph unicode="&#xB3;" horiz-adv-x="662" d="M61 508L72 537Q76 543 90 543Q178 524 227 524Q300 524 350 553T424 626T449 719Q449 789 403 839T268 889Q248 889 248 899V932Q248 946 264 946Q332 946 370 978T408 1071Q408 1142 365 1180T272 1219Q217 1219 141 1178Q132 1172 126 1172Q118 1172 113 1180L94 1204Q94 1216 109 1225Q162 1260 212 1277T328 1294Q445 1294 505 1239T565 1112Q565 973 401 932V928Q489 923 552 874T616 725Q616 612 518 534T266 455Q157 455 72 487Q59 494 59 500Q59 502 61 508Z"  />
<glyph unicode="&#xB4;" horiz-adv-x="682" d="M565 1298L270 952H236L342 1298H565Z"  />
<glyph unicode="&#xB5;" horiz-adv-x="1139" d="M131 936H410V322V250Q412 191 419 163T445 122T498 109Q587 109 659 231V936H938V309V266Q938 188 953 156T1006 123Q1069 123 1081 266H1124Q1123 179 1091 112T1000 8T868 -29Q791 -29 742 10T668 129Q592 46 524 9T381 -29Q336 -29 308 -18T227 29Q227 -66 248 -139L276 -242Q285 -270 285 -311Q285 -370 253 -405T162 -440Q112 -440 86 -408T59 -315Q59 -273 68 -242L98 -129Q116 -61 123 14T131 195V260V936Z"  />
<glyph unicode="&#xB6;" horiz-adv-x="1106" d="M637 1280V-442H537V430Q451 433 408 438T328 454T238 489Q164 523 110 584T28 727T0 901Q0 983 22 1054T87 1184T191 1281T322 1333Q440 1356 668 1356H1106V1313H1063Q1001 1313 972 1297T930 1237T918 1108V-442H819V1280H637Z"  />
<glyph unicode="&#xB7;" horiz-adv-x="555" d="M295 727Q353 727 391 688T430 592Q430 536 392 496T295 455Q238 457 199 495T160 592Q160 649 199 688T295 727Z"  />
<glyph unicode="&#xB8;" horiz-adv-x="682" d="M217 -147L350 33H430L371 -49Q451 -61 489 -95T528 -190Q528 -272 454 -326T266 -381Q232 -381 156 -365L164 -330Q210 -340 233 -340Q294 -340 332 -309T371 -227Q371 -147 236 -147H217Z"  />
<glyph unicode="&#xB9;" horiz-adv-x="662" d="M532 473H145Q131 473 131 489V520Q131 530 180 530Q233 530 248 545Q262 561 267 624T272 848V1153Q271 1191 250 1202T184 1214Q156 1214 156 1225V1264Q156 1274 174 1274Q341 1274 385 1288Q407 1293 414 1293Q428 1293 428 1274Q424 1233 424 1081V725Q424 695 424 679T423 642Q423 572 444 551Q467 530 537 530Q557 530 557 518V489Q557 473 532 473Z"  />
<glyph unicode="&#xBA;" horiz-adv-x="725" d="M387 1321Q516 1321 595 1247T674 1051Q674 969 634 901T524 795T369 756Q240 756 160 830T80 1024Q80 1108 120 1176T230 1282T387 1321ZM377 1280Q307 1280 270 1224T233 1063Q233 795 379 795Q447 795 483 853T520 1024Q520 1280 377 1280Z"  />
<glyph unicode="&#xBB;" horiz-adv-x="981" d="M557 815L924 428Q933 419 933 414Q933 410 924 399L557 8Q550 1 542 1Q538 1 535 4L506 33Q504 35 504 37Q504 42 510 49T516 57L692 416L514 772Q508 781 508 789Q508 795 512 799L535 823Q538 826 542 826Q549 826 557 815ZM102 821L477 428Q484 420 484 415Q484 411 477 401L106 8Q98 0 92 0Q88 0 86 2L59 29Q57 31 57 35Q57 44 66 57L246 414L63 774Q55 788 55 791Q55 795 59 799L86 825Q90 829 93 829Q96 829 102 821Z"  />
<glyph unicode="&#xBC;" horiz-adv-x="1985" d="M1532 168L1266 -252H1538V2Q1536 57 1536 168H1532ZM1513 281H1671Q1686 281 1686 259Q1686 254 1685 229T1683 180V-252H1749Q1757 -252 1757 -260V-315Q1757 -324 1749 -324H1683V-377Q1683 -427 1692 -445T1733 -463Q1749 -463 1749 -475V-504Q1749 -522 1731 -522H1423Q1403 -522 1403 -508V-479Q1403 -465 1427 -465Q1480 -465 1502 -458T1530 -431T1536 -360V-326H1198Q1184 -326 1184 -307V-238L1513 281ZM391 -543L1507 1292H1634L520 -543H391ZM743 471H356Q352 471 351 473T350 485V514Q350 526 379 526Q446 526 461 543Q487 566 487 657V1147Q487 1190 462 1201T395 1212Q369 1212 369 1225V1257Q369 1270 385 1270Q552 1270 608 1284Q628 1290 634 1290Q639 1290 639 1270Q638 1254 637 1187T635 1077V721Q635 569 655 547Q673 530 752 530Q768 530 768 516V485Q768 471 743 471Z"  />
<glyph unicode="&#xBD;" horiz-adv-x="1985" d="M739 477H354Q344 477 344 494V522Q344 535 377 535Q442 535 459 551Q476 571 479 637T483 924V1149Q483 1190 465 1204T385 1219Q369 1219 369 1235V1262Q369 1276 391 1276Q440 1276 514 1280T602 1290Q626 1296 627 1296Q637 1296 637 1282Q637 1269 637 1256T635 1211T633 1149T631 1104V729V668Q631 621 635 595T653 553Q670 537 741 537Q762 537 762 520V489Q762 477 739 477ZM1235 88L1204 104Q1199 107 1199 113Q1199 116 1204 133Q1237 210 1309 255T1483 301Q1558 301 1611 274T1690 201T1716 102Q1716 15 1665 -60T1548 -192T1309 -379V-383H1567Q1616 -383 1639 -376T1668 -350T1675 -291Q1675 -279 1686 -279H1718Q1731 -279 1731 -295V-512Q1731 -514 1729 -517T1722 -520H1188Q1178 -520 1178 -504V-418Q1178 -411 1202 -391Q1356 -276 1457 -169T1559 49Q1559 123 1514 160T1415 197Q1314 197 1257 102Q1248 88 1235 88ZM1503 1296H1634L510 -539H381L1503 1296Z"  />
<glyph unicode="&#xBE;" horiz-adv-x="1985" d="M1532 164L1268 -250H1538V2Q1537 20 1537 53T1536 111T1536 164H1532ZM1513 281H1671Q1688 281 1688 258Q1688 243 1686 206T1683 129V-252H1749Q1757 -252 1757 -260V-307Q1757 -324 1749 -324H1683V-377Q1683 -411 1687 -428T1701 -454T1733 -463Q1749 -463 1749 -475V-504Q1749 -522 1731 -522H1423Q1403 -522 1403 -508V-479Q1403 -461 1430 -461Q1482 -461 1503 -455T1530 -428T1536 -360V-324H1202Q1184 -324 1184 -307V-238L1513 281ZM391 -541L1507 1294H1638L520 -541H391ZM268 506L279 535Q283 541 297 541Q383 520 432 520Q529 520 592 572T655 717Q655 786 612 836T475 887Q459 887 459 901V932Q459 941 461 942T471 944Q536 944 576 977T616 1071Q616 1141 573 1179T479 1217Q421 1217 348 1176Q338 1169 334 1169Q328 1169 322 1178L305 1198Q303 1200 303 1204Q303 1214 315 1223Q360 1255 414 1272T535 1290Q654 1290 714 1236T774 1108Q774 1042 728 996T608 928V924Q696 920 760 871T825 721Q825 607 725 530T469 453Q375 453 279 487Q266 491 266 498Q266 500 268 506Z"  />
<glyph unicode="&#xBF;" horiz-adv-x="874" d="M801 -164L838 -182Q844 -184 844 -189Q844 -196 838 -209Q792 -312 689 -379T430 -446Q341 -446 255 -409T115 -301T61 -139Q61 -68 91 -5T171 113T263 206T350 283Q419 350 430 422Q432 438 440 438H481Q491 438 493 433T496 410Q496 362 472 315T398 190T322 52T295 -72Q295 -135 326 -193T411 -287T532 -322Q605 -322 674 -281T782 -174Q788 -164 801 -164ZM463 786Q520 786 560 746T600 649Q600 592 560 552T463 512Q406 512 366 552T326 649Q326 706 366 746T463 786Z"  />
<glyph unicode="&#xC0;" horiz-adv-x="1430" d="M655 940L442 451H864L655 940ZM227 233L653 1143Q656 1148 666 1175T686 1202H788Q797 1202 808 1168T836 1096L1243 170Q1288 63 1378 63Q1391 63 1391 47V16Q1391 4 1389 2T1378 0H850Q827 0 827 14V53Q827 63 850 63Q921 63 952 77T984 127Q984 154 963 209L899 375H412L344 217Q320 162 320 126Q320 88 349 76T440 63Q450 63 452 60T455 41V18Q455 7 452 4T440 0H70Q57 0 57 16V47Q57 63 70 63Q116 63 152 106T227 233ZM494 1626H717L821 1280H789L494 1626Z"  />
<glyph unicode="&#xC1;" horiz-adv-x="1430" d="M655 940L442 451H864L655 940ZM227 233L653 1143Q656 1148 666 1175T686 1202H788Q797 1202 808 1168T836 1096L1243 170Q1288 63 1378 63Q1391 63 1391 47V16Q1391 4 1389 2T1378 0H850Q827 0 827 14V53Q827 63 850 63Q921 63 952 77T984 127Q984 154 963 209L899 375H412L344 217Q320 162 320 126Q320 88 349 76T440 63Q450 63 452 60T455 41V18Q455 7 452 4T440 0H70Q57 0 57 16V47Q57 63 70 63Q116 63 152 106T227 233ZM940 1615L645 1269H611L717 1615H940Z"  />
<glyph unicode="&#xC2;" horiz-adv-x="1430" d="M655 940L442 451H864L655 940ZM227 233L653 1143Q656 1148 666 1175T686 1202H788Q797 1202 808 1168T836 1096L1243 170Q1288 63 1378 63Q1391 63 1391 47V16Q1391 4 1389 2T1378 0H850Q827 0 827 14V53Q827 63 850 63Q921 63 952 77T984 127Q984 154 963 209L899 375H412L344 217Q320 162 320 126Q320 88 349 76T440 63Q450 63 452 60T455 41V18Q455 7 452 4T440 0H70Q57 0 57 16V47Q57 63 70 63Q116 63 152 106T227 233ZM623 1591H807L998 1261H967L694 1474L465 1261H434L623 1591Z"  />
<glyph unicode="&#xC3;" horiz-adv-x="1430" d="M655 940L442 451H864L655 940ZM227 233L653 1143Q656 1148 666 1175T686 1202H788Q797 1202 808 1168T836 1096L1243 170Q1288 63 1378 63Q1391 63 1391 47V16Q1391 4 1389 2T1378 0H850Q827 0 827 14V53Q827 63 850 63Q921 63 952 77T984 127Q984 154 963 209L899 375H412L344 217Q320 162 320 126Q320 88 349 76T440 63Q450 63 452 60T455 41V18Q455 7 452 4T440 0H70Q57 0 57 16V47Q57 63 70 63Q116 63 152 106T227 233ZM428 1255H398Q401 1381 450 1448T588 1515Q632 1515 671 1499T783 1433Q871 1376 910 1376Q950 1376 971 1407T1006 1515H1037V1497Q1037 1386 982 1320T838 1253Q767 1253 649 1333Q596 1370 572 1382T518 1394Q484 1394 466 1370T434 1286Q431 1278 428 1255Z"  />
<glyph unicode="&#xC4;" horiz-adv-x="1430" d="M655 940L442 451H864L655 940ZM227 233L653 1143Q656 1148 666 1175T686 1202H788Q797 1202 808 1168T836 1096L1243 170Q1288 63 1378 63Q1391 63 1391 47V16Q1391 4 1389 2T1378 0H850Q827 0 827 14V53Q827 63 850 63Q921 63 952 77T984 127Q984 154 963 209L899 375H412L344 217Q320 162 320 126Q320 88 349 76T440 63Q450 63 452 60T455 41V18Q455 7 452 4T440 0H70Q57 0 57 16V47Q57 63 70 63Q116 63 152 106T227 233ZM541 1497Q587 1497 618 1465T649 1388Q649 1344 618 1312T541 1280Q494 1280 462 1312T430 1388Q430 1433 462 1465T541 1497ZM893 1497Q938 1497 970 1465T1002 1388Q1002 1344 970 1312T893 1280Q849 1280 817 1312T785 1388Q785 1433 817 1465T893 1497Z"  />
<glyph unicode="&#xC5;" horiz-adv-x="1430" d="M655 940L442 451H864L655 940ZM227 233L653 1143Q656 1148 666 1175T686 1202H788Q797 1202 808 1168T836 1096L1243 170Q1288 63 1378 63Q1391 63 1391 47V16Q1391 4 1389 2T1378 0H850Q827 0 827 14V53Q827 63 850 63Q921 63 952 77T984 127Q984 154 963 209L899 375H412L344 217Q320 162 320 126Q320 88 349 76T440 63Q450 63 452 60T455 41V18Q455 7 452 4T440 0H70Q57 0 57 16V47Q57 63 70 63Q116 63 152 106T227 233ZM717 1656Q797 1656 852 1600T907 1464Q907 1385 851 1329T717 1273Q639 1273 582 1330T525 1464Q525 1542 581 1599T717 1656ZM717 1587Q666 1587 630 1550T594 1464Q594 1415 630 1379T717 1343Q767 1343 802 1378T838 1464Q838 1514 803 1550T717 1587Z"  />
<glyph unicode="&#xC6;" horiz-adv-x="1772" d="M864 1106L500 455H899V842Q899 892 896 957T885 1106H864ZM1677 0H696Q686 0 686 12V41Q686 63 700 63H727Q755 63 805 70T866 88Q884 106 891 158T899 270V375H457L358 201Q335 162 335 129Q335 63 424 63H475Q483 63 483 45V8Q483 0 463 0H76Q63 0 63 8V45Q63 63 88 63Q141 63 193 143L770 1104Q733 1114 676 1114H627Q618 1114 618 1135V1165Q618 1178 631 1178H1653Q1663 1178 1663 1165V946Q1663 928 1655 928H1610Q1607 928 1599 940Q1545 1106 1401 1106H1139Q1135 1074 1135 1057V647H1382Q1461 647 1504 693T1548 801Q1548 819 1561 819H1602Q1608 819 1610 814T1612 801V428Q1612 401 1602 401H1559Q1548 401 1548 424Q1548 463 1524 498T1463 552T1395 571H1135V193Q1136 179 1136 158T1137 111T1141 72H1415Q1492 72 1550 126T1628 270Q1633 285 1638 285H1683Q1694 285 1694 264V14Q1694 0 1677 0Z"  />
<glyph unicode="&#xC7;" horiz-adv-x="1217" d="M1094 244L1122 223Q1128 219 1128 213Q1128 207 1122 195Q1065 81 940 27T680 -27Q512 -27 381 53T177 269T104 565Q104 640 124 723T185 882T285 1016Q381 1112 498 1157T809 1202Q882 1202 967 1188T1104 1153Q1139 1140 1139 1130V823Q1139 803 1122 803H1085Q1079 803 1077 805T1071 821T1061 850Q1041 900 1000 965T891 1081T733 1133Q637 1133 550 1070T410 886T356 614Q356 477 410 356T558 161T768 86Q923 86 1042 207Q1081 246 1087 246Q1088 246 1094 244ZM485 -147L618 33H698L639 -49Q719 -61 757 -95T796 -190Q796 -272 722 -326T534 -381Q500 -381 424 -365L432 -330Q478 -340 501 -340Q562 -340 600 -309T639 -227Q639 -147 504 -147H485Z"  />
<glyph unicode="&#xC8;" horiz-adv-x="1110" d="M1024 0H76Q59 0 59 18V49Q59 63 84 63Q196 63 223 90Q241 108 248 218T256 453V786Q256 939 251 1004T223 1092Q199 1114 90 1114Q61 1114 61 1128V1163Q61 1178 70 1178H997Q1014 1178 1014 1167V934Q1014 926 1001 926H965Q957 926 955 929T946 948Q922 1015 876 1059T768 1104H496Q495 1071 495 1043T492 969V647H743Q803 647 845 687T897 799Q897 821 907 821H950Q958 821 958 805V416Q958 403 946 403H915Q905 403 901 409T893 438Q887 491 843 531T754 571H492V313Q492 199 498 76H733Q836 76 891 118T973 258Q980 285 989 285L1026 287Q1040 287 1040 268V12Q1040 0 1024 0ZM334 1626H557L661 1280H629L334 1626Z"  />
<glyph unicode="&#xC9;" horiz-adv-x="1110" d="M1024 0H76Q59 0 59 18V49Q59 63 84 63Q196 63 223 90Q241 108 248 218T256 453V786Q256 939 251 1004T223 1092Q199 1114 90 1114Q61 1114 61 1128V1163Q61 1178 70 1178H997Q1014 1178 1014 1167V934Q1014 926 1001 926H965Q957 926 955 929T946 948Q922 1015 876 1059T768 1104H496Q495 1071 495 1043T492 969V647H743Q803 647 845 687T897 799Q897 821 907 821H950Q958 821 958 805V416Q958 403 946 403H915Q905 403 901 409T893 438Q887 491 843 531T754 571H492V313Q492 199 498 76H733Q836 76 891 118T973 258Q980 285 989 285L1026 287Q1040 287 1040 268V12Q1040 0 1024 0ZM780 1615L485 1269H451L557 1615H780Z"  />
<glyph unicode="&#xCA;" horiz-adv-x="1110" d="M1024 0H76Q59 0 59 18V49Q59 63 84 63Q196 63 223 90Q241 108 248 218T256 453V786Q256 939 251 1004T223 1092Q199 1114 90 1114Q61 1114 61 1128V1163Q61 1178 70 1178H997Q1014 1178 1014 1167V934Q1014 926 1001 926H965Q957 926 955 929T946 948Q922 1015 876 1059T768 1104H496Q495 1071 495 1043T492 969V647H743Q803 647 845 687T897 799Q897 821 907 821H950Q958 821 958 805V416Q958 403 946 403H915Q905 403 901 409T893 438Q887 491 843 531T754 571H492V313Q492 199 498 76H733Q836 76 891 118T973 258Q980 285 989 285L1026 287Q1040 287 1040 268V12Q1040 0 1024 0ZM463 1591H647L838 1261H807L534 1474L305 1261H274L463 1591Z"  />
<glyph unicode="&#xCB;" horiz-adv-x="1110" d="M1024 0H76Q59 0 59 18V49Q59 63 84 63Q196 63 223 90Q241 108 248 218T256 453V786Q256 939 251 1004T223 1092Q199 1114 90 1114Q61 1114 61 1128V1163Q61 1178 70 1178H997Q1014 1178 1014 1167V934Q1014 926 1001 926H965Q957 926 955 929T946 948Q922 1015 876 1059T768 1104H496Q495 1071 495 1043T492 969V647H743Q803 647 845 687T897 799Q897 821 907 821H950Q958 821 958 805V416Q958 403 946 403H915Q905 403 901 409T893 438Q887 491 843 531T754 571H492V313Q492 199 498 76H733Q836 76 891 118T973 258Q980 285 989 285L1026 287Q1040 287 1040 268V12Q1040 0 1024 0ZM381 1497Q427 1497 458 1465T489 1388Q489 1344 458 1312T381 1280Q334 1280 302 1312T270 1388Q270 1433 302 1465T381 1497ZM733 1497Q778 1497 810 1465T842 1388Q842 1344 810 1312T733 1280Q689 1280 657 1312T625 1388Q625 1433 657 1465T733 1497Z"  />
<glyph unicode="&#xCC;" horiz-adv-x="768" d="M510 903V213Q510 113 535 88Q560 63 690 63Q709 63 713 61T717 45V14Q717 0 696 0H78Q59 0 59 14V43Q59 55 65 59T90 63H117Q217 63 248 94Q263 110 267 156T272 285V983Q272 1061 244 1090Q219 1114 109 1114Q79 1114 70 1118T61 1135V1165Q61 1178 72 1178H702Q721 1178 721 1165V1133Q721 1121 715 1117T690 1112Q624 1112 588 1107T535 1085Q510 1061 510 903ZM162 1626H385L489 1280H457L162 1626Z"  />
<glyph unicode="&#xCD;" horiz-adv-x="768" d="M510 903V213Q510 113 535 88Q560 63 690 63Q709 63 713 61T717 45V14Q717 0 696 0H78Q59 0 59 14V43Q59 55 65 59T90 63H117Q217 63 248 94Q263 110 267 156T272 285V983Q272 1061 244 1090Q219 1114 109 1114Q79 1114 70 1118T61 1135V1165Q61 1178 72 1178H702Q721 1178 721 1165V1133Q721 1121 715 1117T690 1112Q624 1112 588 1107T535 1085Q510 1061 510 903ZM608 1615L313 1269H279L385 1615H608Z"  />
<glyph unicode="&#xCE;" horiz-adv-x="768" d="M510 903V213Q510 113 535 88Q560 63 690 63Q709 63 713 61T717 45V14Q717 0 696 0H78Q59 0 59 14V43Q59 55 65 59T90 63H117Q217 63 248 94Q263 110 267 156T272 285V983Q272 1061 244 1090Q219 1114 109 1114Q79 1114 70 1118T61 1135V1165Q61 1178 72 1178H702Q721 1178 721 1165V1133Q721 1121 715 1117T690 1112Q624 1112 588 1107T535 1085Q510 1061 510 903ZM291 1591H475L666 1261H635L362 1474L133 1261H102L291 1591Z"  />
<glyph unicode="&#xCF;" horiz-adv-x="768" d="M510 903V213Q510 113 535 88Q560 63 690 63Q709 63 713 61T717 45V14Q717 0 696 0H78Q59 0 59 14V43Q59 55 65 59T90 63H117Q217 63 248 94Q263 110 267 156T272 285V983Q272 1061 244 1090Q219 1114 109 1114Q79 1114 70 1118T61 1135V1165Q61 1178 72 1178H702Q721 1178 721 1165V1133Q721 1121 715 1117T690 1112Q624 1112 588 1107T535 1085Q510 1061 510 903ZM209 1497Q255 1497 286 1465T317 1388Q317 1344 286 1312T209 1280Q162 1280 130 1312T98 1388Q98 1433 130 1465T209 1497ZM561 1497Q606 1497 638 1465T670 1388Q670 1344 638 1312T561 1280Q517 1280 485 1312T453 1388Q453 1433 485 1465T561 1497Z"  />
<glyph unicode="&#xD0;" horiz-adv-x="1430" d="M279 629V842Q279 980 269 1031T226 1098T106 1114H94Q71 1114 68 1122L66 1130V1141V1145V1151Q66 1171 70 1176Q72 1178 88 1178H743Q870 1178 977 1135T1167 1012T1293 825T1337 596Q1337 419 1255 284T1023 75T678 0L84 -2Q66 -2 66 16V49Q66 60 84 63Q218 63 246 92Q279 133 279 352V549H66V629H279ZM520 1108L514 963V629H725V549H514V328L520 76Q580 68 608 68Q757 68 863 132T1024 319T1079 616Q1079 862 964 988T625 1114Q570 1114 520 1108Z"  />
<glyph unicode="&#xD1;" horiz-adv-x="1536" d="M563 0H84Q68 0 68 18V49Q68 61 94 61Q231 61 262 92Q283 111 283 338V909Q283 1067 262 1087Q236 1114 102 1114Q81 1114 75 1118T68 1139V1163Q68 1168 73 1173T82 1178H496Q504 1178 510 1174T523 1159T537 1139Q583 1080 643 1003T808 795T1012 545T1171 354V938Q1171 990 1166 1032T1149 1087Q1122 1114 989 1114Q970 1114 966 1118T961 1133V1163Q961 1178 983 1178H1458Q1470 1178 1470 1163V1133Q1470 1122 1466 1118T1450 1114Q1307 1114 1288 1096Q1268 1075 1268 954V0Q1268 -16 1257 -16H1161Q1119 44 1074 102T986 214T866 362T770 479Q705 559 626 656T496 815T375 954V373Q375 291 381 197T403 86Q428 61 551 61Q582 61 582 43V16Q582 6 579 3T563 0ZM481 1255H451Q454 1381 503 1448T641 1515Q685 1515 724 1499T836 1433Q924 1376 963 1376Q1003 1376 1024 1407T1059 1515H1090V1497Q1090 1386 1035 1320T891 1253Q820 1253 702 1333Q649 1370 625 1382T571 1394Q537 1394 519 1370T487 1286Q484 1278 481 1255Z"  />
<glyph unicode="&#xD2;" horiz-adv-x="1430" d="M688 -25Q561 -25 453 18T265 141T143 328T100 559Q100 684 145 800T278 1007T486 1150T750 1202Q943 1202 1077 1120T1277 902T1343 610Q1343 491 1298 378T1168 174T961 29T688 -25ZM739 43Q831 43 899 90T1009 212T1070 378T1090 547Q1090 629 1075 718T1023 893T930 1034Q830 1137 705 1137Q594 1137 515 1065T395 877T354 633Q354 490 396 355T510 145Q562 96 621 70T739 43ZM494 1626H717L821 1280H789L494 1626Z"  />
<glyph unicode="&#xD3;" horiz-adv-x="1430" d="M688 -25Q561 -25 453 18T265 141T143 328T100 559Q100 684 145 800T278 1007T486 1150T750 1202Q943 1202 1077 1120T1277 902T1343 610Q1343 491 1298 378T1168 174T961 29T688 -25ZM739 43Q831 43 899 90T1009 212T1070 378T1090 547Q1090 629 1075 718T1023 893T930 1034Q830 1137 705 1137Q594 1137 515 1065T395 877T354 633Q354 490 396 355T510 145Q562 96 621 70T739 43ZM940 1615L645 1269H611L717 1615H940Z"  />
<glyph unicode="&#xD4;" horiz-adv-x="1430" d="M688 -25Q561 -25 453 18T265 141T143 328T100 559Q100 684 145 800T278 1007T486 1150T750 1202Q943 1202 1077 1120T1277 902T1343 610Q1343 491 1298 378T1168 174T961 29T688 -25ZM739 43Q831 43 899 90T1009 212T1070 378T1090 547Q1090 629 1075 718T1023 893T930 1034Q830 1137 705 1137Q594 1137 515 1065T395 877T354 633Q354 490 396 355T510 145Q562 96 621 70T739 43ZM623 1591H807L998 1261H967L694 1474L465 1261H434L623 1591Z"  />
<glyph unicode="&#xD5;" horiz-adv-x="1430" d="M688 -25Q561 -25 453 18T265 141T143 328T100 559Q100 684 145 800T278 1007T486 1150T750 1202Q943 1202 1077 1120T1277 902T1343 610Q1343 491 1298 378T1168 174T961 29T688 -25ZM739 43Q831 43 899 90T1009 212T1070 378T1090 547Q1090 629 1075 718T1023 893T930 1034Q830 1137 705 1137Q594 1137 515 1065T395 877T354 633Q354 490 396 355T510 145Q562 96 621 70T739 43ZM428 1255H398Q401 1381 450 1448T588 1515Q632 1515 671 1499T783 1433Q871 1376 910 1376Q950 1376 971 1407T1006 1515H1037V1497Q1037 1386 982 1320T838 1253Q767 1253 649 1333Q596 1370 572 1382T518 1394Q484 1394 466 1370T434 1286Q431 1278 428 1255Z"  />
<glyph unicode="&#xD6;" horiz-adv-x="1430" d="M688 -25Q561 -25 453 18T265 141T143 328T100 559Q100 684 145 800T278 1007T486 1150T750 1202Q943 1202 1077 1120T1277 902T1343 610Q1343 491 1298 378T1168 174T961 29T688 -25ZM739 43Q831 43 899 90T1009 212T1070 378T1090 547Q1090 629 1075 718T1023 893T930 1034Q830 1137 705 1137Q594 1137 515 1065T395 877T354 633Q354 490 396 355T510 145Q562 96 621 70T739 43ZM541 1497Q587 1497 618 1465T649 1388Q649 1344 618 1312T541 1280Q494 1280 462 1312T430 1388Q430 1433 462 1465T541 1497ZM893 1497Q938 1497 970 1465T1002 1388Q1002 1344 970 1312T893 1280Q849 1280 817 1312T785 1388Q785 1433 817 1465T893 1497Z"  />
<glyph unicode="&#xD7;" horiz-adv-x="1366" d="M184 1071L276 1163L684 754L1094 1163L1186 1069L778 662L1182 256L1090 164L684 569L279 164L186 256L592 662L184 1071Z"  />
<glyph unicode="&#xD8;" horiz-adv-x="1430" d="M424 287L993 954Q943 1037 870 1086T709 1135Q579 1135 500 1051T388 851T356 633Q356 571 362 514T384 400T424 287ZM1024 895L453 231Q496 150 573 98T745 45Q859 45 937 118T1052 308T1090 553Q1090 652 1075 729T1024 895ZM186 14L283 125Q195 207 149 317T102 549Q102 731 185 880T416 1116T754 1202Q875 1202 959 1175T1116 1096L1208 1204L1251 1163L1161 1057Q1343 883 1343 616Q1343 531 1321 448T1257 291T1161 164Q1098 101 1026 60T870 -3T690 -25Q583 -25 496 3T328 86L236 -23L186 14Z"  />
<glyph unicode="&#xD9;" horiz-adv-x="1430" d="M258 408V899Q258 973 253 1024T227 1094Q207 1114 111 1114H84Q63 1114 63 1139V1171Q63 1178 82 1178H686Q700 1178 700 1169V1133Q700 1114 670 1114H633Q551 1114 526 1090Q506 1070 500 1018T494 895V573V503Q494 426 500 362T526 242T584 147Q622 112 670 95T772 78Q906 78 993 166Q1052 225 1071 321T1090 539V799Q1090 873 1082 967T1051 1085Q1022 1114 935 1114H895Q874 1114 874 1133V1169Q874 1178 899 1178H1362Q1380 1178 1380 1167V1135Q1380 1114 1360 1114H1333Q1245 1114 1221 1090Q1186 1055 1186 940V479Q1186 352 1158 261T1067 106Q1025 66 974 37T862 -7T731 -23Q659 -23 589 -8T461 37T367 104Q309 162 284 237T258 408ZM494 1626H717L821 1280H789L494 1626Z"  />
<glyph unicode="&#xDA;" horiz-adv-x="1430" d="M258 408V899Q258 973 253 1024T227 1094Q207 1114 111 1114H84Q63 1114 63 1139V1171Q63 1178 82 1178H686Q700 1178 700 1169V1133Q700 1114 670 1114H633Q551 1114 526 1090Q506 1070 500 1018T494 895V573V503Q494 426 500 362T526 242T584 147Q622 112 670 95T772 78Q906 78 993 166Q1052 225 1071 321T1090 539V799Q1090 873 1082 967T1051 1085Q1022 1114 935 1114H895Q874 1114 874 1133V1169Q874 1178 899 1178H1362Q1380 1178 1380 1167V1135Q1380 1114 1360 1114H1333Q1245 1114 1221 1090Q1186 1055 1186 940V479Q1186 352 1158 261T1067 106Q1025 66 974 37T862 -7T731 -23Q659 -23 589 -8T461 37T367 104Q309 162 284 237T258 408ZM940 1615L645 1269H611L717 1615H940Z"  />
<glyph unicode="&#xDB;" horiz-adv-x="1430" d="M258 408V899Q258 973 253 1024T227 1094Q207 1114 111 1114H84Q63 1114 63 1139V1171Q63 1178 82 1178H686Q700 1178 700 1169V1133Q700 1114 670 1114H633Q551 1114 526 1090Q506 1070 500 1018T494 895V573V503Q494 426 500 362T526 242T584 147Q622 112 670 95T772 78Q906 78 993 166Q1052 225 1071 321T1090 539V799Q1090 873 1082 967T1051 1085Q1022 1114 935 1114H895Q874 1114 874 1133V1169Q874 1178 899 1178H1362Q1380 1178 1380 1167V1135Q1380 1114 1360 1114H1333Q1245 1114 1221 1090Q1186 1055 1186 940V479Q1186 352 1158 261T1067 106Q1025 66 974 37T862 -7T731 -23Q659 -23 589 -8T461 37T367 104Q309 162 284 237T258 408ZM623 1591H807L998 1261H967L694 1474L465 1261H434L623 1591Z"  />
<glyph unicode="&#xDC;" horiz-adv-x="1430" d="M258 408V899Q258 973 253 1024T227 1094Q207 1114 111 1114H84Q63 1114 63 1139V1171Q63 1178 82 1178H686Q700 1178 700 1169V1133Q700 1114 670 1114H633Q551 1114 526 1090Q506 1070 500 1018T494 895V573V503Q494 426 500 362T526 242T584 147Q622 112 670 95T772 78Q906 78 993 166Q1052 225 1071 321T1090 539V799Q1090 873 1082 967T1051 1085Q1022 1114 935 1114H895Q874 1114 874 1133V1169Q874 1178 899 1178H1362Q1380 1178 1380 1167V1135Q1380 1114 1360 1114H1333Q1245 1114 1221 1090Q1186 1055 1186 940V479Q1186 352 1158 261T1067 106Q1025 66 974 37T862 -7T731 -23Q659 -23 589 -8T461 37T367 104Q309 162 284 237T258 408ZM541 1497Q587 1497 618 1465T649 1388Q649 1344 618 1312T541 1280Q494 1280 462 1312T430 1388Q430 1433 462 1465T541 1497ZM893 1497Q938 1497 970 1465T1002 1388Q1002 1344 970 1312T893 1280Q849 1280 817 1312T785 1388Q785 1433 817 1465T893 1497Z"  />
<glyph unicode="&#xDD;" horiz-adv-x="1323" d="M788 473V197Q788 107 807 88Q832 63 956 63Q977 63 977 47V10Q977 0 954 0H373Q362 0 362 10V47Q362 63 393 63Q511 63 537 88Q555 106 555 221V463L238 971Q191 1045 157 1079T76 1114Q55 1114 55 1128V1165Q55 1178 70 1178H606Q623 1178 623 1165V1130Q623 1114 600 1114Q481 1114 481 1057Q481 1035 498 1006L752 569L991 952Q1034 1020 1034 1056Q1034 1114 901 1114Q886 1114 882 1119T877 1141V1169Q877 1178 893 1178H1270Q1282 1178 1282 1169V1135Q1282 1114 1264 1114Q1229 1114 1200 1093T1146 1038T1087 950L788 473ZM887 1615L592 1269H558L664 1615H887Z"  />
<glyph unicode="&#xDE;" horiz-adv-x="1217" d="M532 915H760Q867 915 956 875T1096 763T1147 606Q1147 527 1113 463T1014 352T857 281T655 256Q637 256 547 260L526 262Q529 108 549 88Q571 63 698 63H717Q752 63 752 45V14Q752 0 733 0L94 -2Q70 -2 70 14V45Q70 63 104 63H117Q239 63 260 84Q291 114 291 424V922Q291 1068 270 1092Q246 1116 121 1116H102Q82 1116 75 1119T68 1135V1165Q68 1178 86 1178H725Q750 1178 750 1165V1135Q750 1123 743 1120T715 1116H702Q579 1116 557 1094Q542 1074 532 926V915ZM530 848L526 702V332Q582 326 600 326Q685 326 755 359T864 452T903 586Q903 713 824 781T600 850Q571 850 543 848H530Z"  />
<glyph unicode="&#xDF;" horiz-adv-x="1323" d="M446 670V379Q446 266 453 80Q457 71 495 65T563 59H594Q610 59 610 43V12Q610 2 590 2H113Q96 2 92 3T88 12V43Q88 59 96 59H119Q184 59 203 78Q233 108 233 332Q232 380 231 434T228 601T222 819T219 928Q219 934 219 943T218 964Q218 1116 301 1200Q430 1327 709 1327Q954 1327 1067 1214Q1098 1185 1114 1144T1130 1061Q1130 1011 1112 974T1075 918Q1047 890 1012 875T939 844T881 809Q846 775 846 733Q846 690 883 651Q899 635 1007 579T1161 477Q1203 437 1223 390T1243 293Q1243 224 1207 149T1086 23T870 -29Q815 -29 760 -16T684 12V217Q684 233 696 233H727Q735 233 739 215Q761 118 789 78T881 37Q943 37 985 84T1028 197Q1028 281 967 344Q937 374 832 436T688 537Q630 593 630 668Q630 745 694 809Q707 822 735 840T795 878T844 913Q901 973 901 1059Q901 1112 874 1159T793 1236T668 1266Q530 1266 486 1171T442 893Q442 865 444 780T446 670Z"  />
<glyph unicode="&#xE0;" horiz-adv-x="981" d="M578 250V428Q440 425 362 373T283 233Q283 177 317 138T408 98Q451 98 491 124T554 188T578 250ZM172 592L137 608Q130 609 130 618Q130 625 133 635Q152 683 183 722T262 791T372 839T514 856Q594 856 658 830T762 742T801 580Q801 569 797 446T793 268Q793 153 803 84Q807 59 858 59H920Q936 59 936 53V10Q936 0 928 0H807Q742 0 680 -6Q642 -8 619 -10T592 -12Q585 -12 582 -9T575 8Q575 41 575 64T573 113Q504 58 469 34T381 -10T266 -31Q172 -31 115 33T57 193Q57 233 75 278T125 354Q152 381 193 405T288 445T410 471T575 487Q575 494 575 500T576 515Q576 745 393 745Q324 745 273 711T193 614Q182 592 172 592ZM269 1309H492L596 963H564L269 1309Z"  />
<glyph unicode="&#xE1;" horiz-adv-x="981" d="M578 250V428Q440 425 362 373T283 233Q283 177 317 138T408 98Q451 98 491 124T554 188T578 250ZM172 592L137 608Q130 609 130 618Q130 625 133 635Q152 683 183 722T262 791T372 839T514 856Q594 856 658 830T762 742T801 580Q801 569 797 446T793 268Q793 153 803 84Q807 59 858 59H920Q936 59 936 53V10Q936 0 928 0H807Q742 0 680 -6Q642 -8 619 -10T592 -12Q585 -12 582 -9T575 8Q575 41 575 64T573 113Q504 58 469 34T381 -10T266 -31Q172 -31 115 33T57 193Q57 233 75 278T125 354Q152 381 193 405T288 445T410 471T575 487Q575 494 575 500T576 515Q576 745 393 745Q324 745 273 711T193 614Q182 592 172 592ZM715 1298L420 952H386L492 1298H715Z"  />
<glyph unicode="&#xE2;" horiz-adv-x="981" d="M578 250V428Q440 425 362 373T283 233Q283 177 317 138T408 98Q451 98 491 124T554 188T578 250ZM172 592L137 608Q130 609 130 618Q130 625 133 635Q152 683 183 722T262 791T372 839T514 856Q594 856 658 830T762 742T801 580Q801 569 797 446T793 268Q793 153 803 84Q807 59 858 59H920Q936 59 936 53V10Q936 0 928 0H807Q742 0 680 -6Q642 -8 619 -10T592 -12Q585 -12 582 -9T575 8Q575 41 575 64T573 113Q504 58 469 34T381 -10T266 -31Q172 -31 115 33T57 193Q57 233 75 278T125 354Q152 381 193 405T288 445T410 471T575 487Q575 494 575 500T576 515Q576 745 393 745Q324 745 273 711T193 614Q182 592 172 592ZM398 1274H582L773 944H742L469 1157L240 944H209L398 1274Z"  />
<glyph unicode="&#xE3;" horiz-adv-x="981" d="M578 250V428Q440 425 362 373T283 233Q283 177 317 138T408 98Q451 98 491 124T554 188T578 250ZM172 592L137 608Q130 609 130 618Q130 625 133 635Q152 683 183 722T262 791T372 839T514 856Q594 856 658 830T762 742T801 580Q801 569 797 446T793 268Q793 153 803 84Q807 59 858 59H920Q936 59 936 53V10Q936 0 928 0H807Q742 0 680 -6Q642 -8 619 -10T592 -12Q585 -12 582 -9T575 8Q575 41 575 64T573 113Q504 58 469 34T381 -10T266 -31Q172 -31 115 33T57 193Q57 233 75 278T125 354Q152 381 193 405T288 445T410 471T575 487Q575 494 575 500T576 515Q576 745 393 745Q324 745 273 711T193 614Q182 592 172 592ZM203 938H173Q176 1064 225 1131T363 1198Q407 1198 446 1182T558 1116Q646 1059 685 1059Q725 1059 746 1090T781 1198H812V1180Q812 1069 757 1003T613 936Q542 936 424 1016Q371 1053 347 1065T293 1077Q259 1077 241 1053T209 969Q206 961 203 938Z"  />
<glyph unicode="&#xE4;" horiz-adv-x="981" d="M578 250V428Q440 425 362 373T283 233Q283 177 317 138T408 98Q451 98 491 124T554 188T578 250ZM172 592L137 608Q130 609 130 618Q130 625 133 635Q152 683 183 722T262 791T372 839T514 856Q594 856 658 830T762 742T801 580Q801 569 797 446T793 268Q793 153 803 84Q807 59 858 59H920Q936 59 936 53V10Q936 0 928 0H807Q742 0 680 -6Q642 -8 619 -10T592 -12Q585 -12 582 -9T575 8Q575 41 575 64T573 113Q504 58 469 34T381 -10T266 -31Q172 -31 115 33T57 193Q57 233 75 278T125 354Q152 381 193 405T288 445T410 471T575 487Q575 494 575 500T576 515Q576 745 393 745Q324 745 273 711T193 614Q182 592 172 592ZM316 1180Q362 1180 393 1148T424 1071Q424 1027 393 995T316 963Q269 963 237 995T205 1071Q205 1116 237 1148T316 1180ZM668 1180Q713 1180 745 1148T777 1071Q777 1027 745 995T668 963Q624 963 592 995T560 1071Q560 1116 592 1148T668 1180Z"  />
<glyph unicode="&#xE5;" horiz-adv-x="981" d="M578 250V428Q440 425 362 373T283 233Q283 177 317 138T408 98Q451 98 491 124T554 188T578 250ZM172 592L137 608Q130 609 130 618Q130 625 133 635Q152 683 183 722T262 791T372 839T514 856Q594 856 658 830T762 742T801 580Q801 569 797 446T793 268Q793 153 803 84Q807 59 858 59H920Q936 59 936 53V10Q936 0 928 0H807Q742 0 680 -6Q642 -8 619 -10T592 -12Q585 -12 582 -9T575 8Q575 41 575 64T573 113Q504 58 469 34T381 -10T266 -31Q172 -31 115 33T57 193Q57 233 75 278T125 354Q152 381 193 405T288 445T410 471T575 487Q575 494 575 500T576 515Q576 745 393 745Q324 745 273 711T193 614Q182 592 172 592ZM476 1339Q556 1339 611 1283T666 1147Q666 1068 610 1012T476 956Q398 956 341 1013T284 1147Q284 1225 340 1282T476 1339ZM476 1270Q425 1270 389 1233T353 1147Q353 1098 389 1062T476 1026Q526 1026 561 1061T597 1147Q597 1197 562 1233T476 1270Z"  />
<glyph unicode="&#xE6;" horiz-adv-x="1430" d="M801 563H1104Q1114 563 1122 574T1130 610Q1130 689 1090 738T985 788Q915 788 865 724T801 563ZM573 246V428Q488 423 431 406T332 346Q285 299 285 231Q285 174 318 136T408 98Q462 98 517 147T573 246ZM168 594L137 610Q131 614 131 627Q152 692 204 744T334 826T500 856Q648 856 743 768Q866 856 1022 856Q1097 856 1177 824T1314 723T1370 555Q1370 502 1356 502H793Q790 472 790 442Q790 274 881 184Q963 100 1085 100Q1144 100 1200 127T1292 201Q1299 211 1308 211Q1309 211 1315 209L1343 190Q1350 187 1350 181Q1350 175 1346 170Q1296 81 1198 25T987 -31Q900 -31 832 -11T710 53T614 160Q572 108 518 65T402 -5T272 -31Q175 -31 115 31T55 188Q55 279 125 352Q192 419 302 447T573 485Q573 613 533 678T399 743Q256 743 186 604Q181 592 175 592Q174 592 168 594Z"  />
<glyph unicode="&#xE7;" horiz-adv-x="874" d="M801 195L827 180Q833 177 833 172Q833 168 825 150Q799 77 709 23T498 -31Q348 -31 219 68T90 369Q90 511 162 622T357 795T631 856Q718 856 801 838Q817 835 817 819V797V588Q817 567 809 567H768Q768 568 767 570T763 577T758 588Q743 643 712 688T637 757T541 782Q480 782 428 746T344 645T313 496Q313 383 345 287T441 132T590 74Q647 74 697 106T776 184Q783 198 792 198Q797 198 801 195ZM313 -147L446 33H526L467 -49Q547 -61 585 -95T624 -190Q624 -272 550 -326T362 -381Q328 -381 252 -365L260 -330Q306 -340 329 -340Q390 -340 428 -309T467 -227Q467 -147 332 -147H313Z"  />
<glyph unicode="&#xE8;" horiz-adv-x="981" d="M332 565H645Q664 565 664 610Q664 696 620 743T520 791Q450 791 398 730T332 565ZM844 213L877 195Q885 190 885 186Q885 182 872 160Q821 72 719 21T502 -31Q383 -31 289 22T139 170T84 379Q84 523 149 632T320 798T547 856Q639 856 721 822T854 720T905 557Q905 502 879 502H322Q319 472 319 444Q319 341 357 262T464 142T618 100Q681 100 736 129T825 205Q834 215 838 215Q840 215 844 213ZM269 1309H492L596 963H564L269 1309Z"  />
<glyph unicode="&#xE9;" horiz-adv-x="981" d="M332 565H645Q664 565 664 610Q664 696 620 743T520 791Q450 791 398 730T332 565ZM844 213L877 195Q885 190 885 186Q885 182 872 160Q821 72 719 21T502 -31Q383 -31 289 22T139 170T84 379Q84 523 149 632T320 798T547 856Q639 856 721 822T854 720T905 557Q905 502 879 502H322Q319 472 319 444Q319 341 357 262T464 142T618 100Q681 100 736 129T825 205Q834 215 838 215Q840 215 844 213ZM715 1298L420 952H386L492 1298H715Z"  />
<glyph unicode="&#xEA;" horiz-adv-x="981" d="M332 565H645Q664 565 664 610Q664 696 620 743T520 791Q450 791 398 730T332 565ZM844 213L877 195Q885 190 885 186Q885 182 872 160Q821 72 719 21T502 -31Q383 -31 289 22T139 170T84 379Q84 523 149 632T320 798T547 856Q639 856 721 822T854 720T905 557Q905 502 879 502H322Q319 472 319 444Q319 341 357 262T464 142T618 100Q681 100 736 129T825 205Q834 215 838 215Q840 215 844 213ZM398 1274H582L773 944H742L469 1157L240 944H209L398 1274Z"  />
<glyph unicode="&#xEB;" horiz-adv-x="981" d="M332 565H645Q664 565 664 610Q664 696 620 743T520 791Q450 791 398 730T332 565ZM844 213L877 195Q885 190 885 186Q885 182 872 160Q821 72 719 21T502 -31Q383 -31 289 22T139 170T84 379Q84 523 149 632T320 798T547 856Q639 856 721 822T854 720T905 557Q905 502 879 502H322Q319 472 319 444Q319 341 357 262T464 142T618 100Q681 100 736 129T825 205Q834 215 838 215Q840 215 844 213ZM316 1180Q362 1180 393 1148T424 1071Q424 1027 393 995T316 963Q269 963 237 995T205 1071Q205 1116 237 1148T316 1180ZM668 1180Q713 1180 745 1148T777 1071Q777 1027 745 995T668 963Q624 963 592 995T560 1071Q560 1116 592 1148T668 1180Z"  />
<glyph unicode="&#xEC;" horiz-adv-x="662" d="M240 305V600Q240 729 217 752Q211 758 187 764T137 770H109Q92 770 92 786V813Q92 829 113 829H240Q262 829 289 830T335 833T373 836Q432 842 449 842Q465 842 465 819Q465 814 460 718T455 578V305V194Q455 103 459 72Q477 70 508 65T563 59H594Q607 59 610 58T614 45V18Q614 0 594 0H109Q97 0 92 3T86 14V41Q86 59 98 59H123Q178 59 203 82Q240 119 240 305ZM110 1309H333L437 963H405L110 1309Z"  />
<glyph unicode="&#xED;" horiz-adv-x="662" d="M240 305V600Q240 729 217 752Q211 758 187 764T137 770H109Q92 770 92 786V813Q92 829 113 829H240Q262 829 289 830T335 833T373 836Q432 842 449 842Q465 842 465 819Q465 814 460 718T455 578V305V194Q455 103 459 72Q477 70 508 65T563 59H594Q607 59 610 58T614 45V18Q614 0 594 0H109Q97 0 92 3T86 14V41Q86 59 98 59H123Q178 59 203 82Q240 119 240 305ZM556 1298L261 952H227L333 1298H556Z"  />
<glyph unicode="&#xEE;" horiz-adv-x="662" d="M240 305V600Q240 729 217 752Q211 758 187 764T137 770H109Q92 770 92 786V813Q92 829 113 829H240Q262 829 289 830T335 833T373 836Q432 842 449 842Q465 842 465 819Q465 814 460 718T455 578V305V194Q455 103 459 72Q477 70 508 65T563 59H594Q607 59 610 58T614 45V18Q614 0 594 0H109Q97 0 92 3T86 14V41Q86 59 98 59H123Q178 59 203 82Q240 119 240 305ZM239 1274H423L614 944H583L310 1157L81 944H50L239 1274Z"  />
<glyph unicode="&#xEF;" horiz-adv-x="662" d="M240 305V600Q240 729 217 752Q211 758 187 764T137 770H109Q92 770 92 786V813Q92 829 113 829H240Q262 829 289 830T335 833T373 836Q432 842 449 842Q465 842 465 819Q465 814 460 718T455 578V305V194Q455 103 459 72Q477 70 508 65T563 59H594Q607 59 610 58T614 45V18Q614 0 594 0H109Q97 0 92 3T86 14V41Q86 59 98 59H123Q178 59 203 82Q240 119 240 305ZM157 1180Q203 1180 234 1148T265 1071Q265 1027 234 995T157 963Q110 963 78 995T46 1071Q46 1116 78 1148T157 1180ZM509 1180Q554 1180 586 1148T618 1071Q618 1027 586 995T509 963Q465 963 433 995T401 1071Q401 1116 433 1148T509 1180Z"  />
<glyph unicode="&#xF0;" horiz-adv-x="1169" d="M633 793Q527 793 471 702T414 438Q414 307 440 217T520 80T649 33Q750 33 806 127T862 387Q862 516 835 607T757 746T633 793ZM930 1325L952 1270L754 1169Q857 1078 908 1012T1008 842Q1098 648 1098 449Q1098 312 1037 202T868 32T623 -29Q527 -29 444 2T302 88T211 222T178 389Q178 521 239 627T409 793T653 854Q690 854 764 844L784 842Q737 933 698 986T600 1092L342 963L315 1020L549 1137Q479 1196 395 1241L473 1325Q539 1300 584 1278T696 1210L930 1325Z"  />
<glyph unicode="&#xF1;" horiz-adv-x="1217" d="M1028 643V313Q1028 229 1029 168T1034 66Q1106 59 1128 59H1149Q1171 59 1171 49V20Q1171 6 1168 3T1153 0H690Q681 0 679 3T676 16V41Q676 59 690 59Q752 59 780 84Q813 117 813 332V430Q813 521 803 578T758 670Q707 719 637 719Q593 719 542 690T459 616Q454 610 448 541T442 414V258Q442 218 446 157T451 68Q466 65 539 59H563Q578 59 578 43V16Q578 4 577 2T567 0H121Q103 0 99 2T94 16V47Q94 59 111 59Q170 59 195 82Q214 103 221 163T229 295V485V525Q229 729 211 748Q193 766 143 766H119Q106 766 106 782V813Q106 825 119 825H154Q247 825 342 834Q361 835 381 836T409 838T425 839T438 840Q451 840 451 825V698Q528 775 615 815T786 856Q854 856 909 832T996 760T1028 643ZM321 938H291Q294 1064 343 1131T481 1198Q525 1198 564 1182T676 1116Q764 1059 803 1059Q843 1059 864 1090T899 1198H930V1180Q930 1069 875 1003T731 936Q660 936 542 1016Q489 1053 465 1065T411 1077Q377 1077 359 1053T327 969Q324 961 321 938Z"  />
<glyph unicode="&#xF2;" horiz-adv-x="1110" d="M553 -31Q353 -31 229 86T104 389Q104 506 160 613T326 788T586 856Q691 856 773 822T912 731T999 599T1030 444Q1030 346 996 259T899 107T749 6T553 -31ZM567 33Q674 33 733 122T793 387Q793 509 769 600T692 741T563 791Q458 791 401 700T344 461Q344 307 373 210T453 73T567 33ZM334 1309H557L661 963H629L334 1309Z"  />
<glyph unicode="&#xF3;" horiz-adv-x="1110" d="M553 -31Q353 -31 229 86T104 389Q104 506 160 613T326 788T586 856Q691 856 773 822T912 731T999 599T1030 444Q1030 346 996 259T899 107T749 6T553 -31ZM567 33Q674 33 733 122T793 387Q793 509 769 600T692 741T563 791Q458 791 401 700T344 461Q344 307 373 210T453 73T567 33ZM780 1298L485 952H451L557 1298H780Z"  />
<glyph unicode="&#xF4;" horiz-adv-x="1110" d="M553 -31Q353 -31 229 86T104 389Q104 506 160 613T326 788T586 856Q691 856 773 822T912 731T999 599T1030 444Q1030 346 996 259T899 107T749 6T553 -31ZM567 33Q674 33 733 122T793 387Q793 509 769 600T692 741T563 791Q458 791 401 700T344 461Q344 307 373 210T453 73T567 33ZM463 1274H647L838 944H807L534 1157L305 944H274L463 1274Z"  />
<glyph unicode="&#xF5;" horiz-adv-x="1110" d="M553 -31Q353 -31 229 86T104 389Q104 506 160 613T326 788T586 856Q691 856 773 822T912 731T999 599T1030 444Q1030 346 996 259T899 107T749 6T553 -31ZM567 33Q674 33 733 122T793 387Q793 509 769 600T692 741T563 791Q458 791 401 700T344 461Q344 307 373 210T453 73T567 33ZM268 938H238Q241 1064 290 1131T428 1198Q472 1198 511 1182T623 1116Q711 1059 750 1059Q790 1059 811 1090T846 1198H877V1180Q877 1069 822 1003T678 936Q607 936 489 1016Q436 1053 412 1065T358 1077Q324 1077 306 1053T274 969Q271 961 268 938Z"  />
<glyph unicode="&#xF6;" horiz-adv-x="1110" d="M553 -31Q353 -31 229 86T104 389Q104 506 160 613T326 788T586 856Q691 856 773 822T912 731T999 599T1030 444Q1030 346 996 259T899 107T749 6T553 -31ZM567 33Q674 33 733 122T793 387Q793 509 769 600T692 741T563 791Q458 791 401 700T344 461Q344 307 373 210T453 73T567 33ZM381 1180Q427 1180 458 1148T489 1071Q489 1027 458 995T381 963Q334 963 302 995T270 1071Q270 1116 302 1148T381 1180ZM733 1180Q778 1180 810 1148T842 1071Q842 1027 810 995T733 963Q689 963 657 995T625 1071Q625 1116 657 1148T733 1180Z"  />
<glyph unicode="&#xF7;" horiz-adv-x="1366" d="M596 1083Q598 1116 623 1139T682 1163Q715 1163 739 1139T764 1079Q764 1044 740 1019T682 993Q646 993 621 1020T596 1083ZM596 252Q596 286 622 312T682 338Q717 338 741 314T766 254Q766 219 742 194T682 168Q648 168 622 194T596 252ZM139 725H1229V598H139V725Z"  />
<glyph unicode="&#xF8;" horiz-adv-x="1110" d="M369 219L745 664Q723 722 674 756T563 791Q448 791 396 696T344 442Q344 297 369 219ZM768 602L391 162Q444 35 575 35Q708 35 749 147T791 397Q791 464 786 502T768 602ZM182 4L246 74Q177 135 142 213T106 389Q106 483 138 565T234 713T388 817T586 854Q678 854 738 835T850 782L909 856L954 819L893 750Q1030 622 1030 438Q1030 311 971 204T804 34T557 -29Q502 -29 454 -21T371 1T289 41L227 -31L182 4Z"  />
<glyph unicode="&#xF9;" horiz-adv-x="1217" d="M420 451V338Q420 104 580 104Q656 104 724 158T793 297V541Q793 606 787 667T768 741Q746 766 709 766H672Q662 766 662 780V817Q662 825 678 825H764Q847 825 924 834Q939 835 955 836T978 838T991 839T1004 840Q1016 840 1016 819Q1016 802 1012 697T1008 571V256Q1008 173 1022 70Q1079 59 1126 59H1155Q1165 59 1165 47V14Q1165 0 1153 0H1034Q941 0 879 -6Q842 -8 822 -10T803 -12Q791 -12 791 3Q792 11 792 17T793 35V135Q631 -29 455 -29Q387 -29 329 -2T235 82T199 223Q199 246 203 358T207 535Q207 714 180 741Q153 766 119 766H84Q66 766 66 784V811Q66 825 86 825H170Q257 825 342 834Q359 835 377 836T403 838T417 839T428 840Q438 840 438 823Q438 791 429 635T420 451ZM387 1309H610L714 963H682L387 1309Z"  />
<glyph unicode="&#xFA;" horiz-adv-x="1217" d="M420 451V338Q420 104 580 104Q656 104 724 158T793 297V541Q793 606 787 667T768 741Q746 766 709 766H672Q662 766 662 780V817Q662 825 678 825H764Q847 825 924 834Q939 835 955 836T978 838T991 839T1004 840Q1016 840 1016 819Q1016 802 1012 697T1008 571V256Q1008 173 1022 70Q1079 59 1126 59H1155Q1165 59 1165 47V14Q1165 0 1153 0H1034Q941 0 879 -6Q842 -8 822 -10T803 -12Q791 -12 791 3Q792 11 792 17T793 35V135Q631 -29 455 -29Q387 -29 329 -2T235 82T199 223Q199 246 203 358T207 535Q207 714 180 741Q153 766 119 766H84Q66 766 66 784V811Q66 825 86 825H170Q257 825 342 834Q359 835 377 836T403 838T417 839T428 840Q438 840 438 823Q438 791 429 635T420 451ZM833 1298L538 952H504L610 1298H833Z"  />
<glyph unicode="&#xFB;" horiz-adv-x="1217" d="M420 451V338Q420 104 580 104Q656 104 724 158T793 297V541Q793 606 787 667T768 741Q746 766 709 766H672Q662 766 662 780V817Q662 825 678 825H764Q847 825 924 834Q939 835 955 836T978 838T991 839T1004 840Q1016 840 1016 819Q1016 802 1012 697T1008 571V256Q1008 173 1022 70Q1079 59 1126 59H1155Q1165 59 1165 47V14Q1165 0 1153 0H1034Q941 0 879 -6Q842 -8 822 -10T803 -12Q791 -12 791 3Q792 11 792 17T793 35V135Q631 -29 455 -29Q387 -29 329 -2T235 82T199 223Q199 246 203 358T207 535Q207 714 180 741Q153 766 119 766H84Q66 766 66 784V811Q66 825 86 825H170Q257 825 342 834Q359 835 377 836T403 838T417 839T428 840Q438 840 438 823Q438 791 429 635T420 451ZM516 1274H700L891 944H860L587 1157L358 944H327L516 1274Z"  />
<glyph unicode="&#xFC;" horiz-adv-x="1217" d="M420 451V338Q420 104 580 104Q656 104 724 158T793 297V541Q793 606 787 667T768 741Q746 766 709 766H672Q662 766 662 780V817Q662 825 678 825H764Q847 825 924 834Q939 835 955 836T978 838T991 839T1004 840Q1016 840 1016 819Q1016 802 1012 697T1008 571V256Q1008 173 1022 70Q1079 59 1126 59H1155Q1165 59 1165 47V14Q1165 0 1153 0H1034Q941 0 879 -6Q842 -8 822 -10T803 -12Q791 -12 791 3Q792 11 792 17T793 35V135Q631 -29 455 -29Q387 -29 329 -2T235 82T199 223Q199 246 203 358T207 535Q207 714 180 741Q153 766 119 766H84Q66 766 66 784V811Q66 825 86 825H170Q257 825 342 834Q359 835 377 836T403 838T417 839T428 840Q438 840 438 823Q438 791 429 635T420 451ZM434 1180Q480 1180 511 1148T542 1071Q542 1027 511 995T434 963Q387 963 355 995T323 1071Q323 1116 355 1148T434 1180ZM786 1180Q831 1180 863 1148T895 1071Q895 1027 863 995T786 963Q742 963 710 995T678 1071Q678 1116 710 1148T786 1180Z"  />
<glyph unicode="&#xFD;" horiz-adv-x="1110" d="M555 -102L236 580Q221 614 192 666T143 737Q114 766 87 766Q82 766 80 766T74 765Q66 765 66 778V815Q66 825 82 825H516Q541 825 541 811V780Q541 766 510 766Q471 766 450 757T428 719Q428 703 448 645T485 549L662 164L801 512Q819 554 843 625T868 711Q868 741 840 753T780 766H745Q731 766 731 780V811Q731 825 745 825H1049Q1065 825 1065 815V772Q1065 766 1054 765T1034 762T1010 743Q981 707 926 587T813 330L625 -115Q580 -224 556 -280T502 -387T436 -475Q383 -528 331 -548T217 -569H143Q113 -569 104 -562T94 -526Q94 -506 94 -488T92 -433T90 -360T88 -309Q88 -291 96 -291H137Q142 -291 145 -299T155 -332T166 -369Q176 -400 189 -412T244 -424Q313 -424 360 -403T437 -341T501 -226T555 -102ZM780 1298L485 952H451L557 1298H780Z"  />
<glyph unicode="&#xFE;" horiz-adv-x="1217" d="M205 0V913Q205 1052 203 1111T192 1199T166 1237T111 1247H109Q86 1247 86 1260V1292Q86 1307 98 1307H174L389 1319L422 1321Q434 1321 434 1303V1300V1296V1290V1288Q432 1280 432 1251Q428 1125 428 1092Q424 944 424 868V713L428 717Q567 856 748 856Q850 856 934 804T1065 660T1112 453Q1112 316 1047 206T867 32T612 -31Q529 -31 420 8V-55Q422 -200 428 -399L430 -479H446Q489 -481 555 -481H582Q592 -481 592 -498V-524Q592 -541 578 -541H84Q72 -541 72 -528V-498Q72 -481 86 -481H96Q152 -481 172 -464T199 -388T205 -178V0ZM442 549V125Q488 74 530 54T629 33Q708 33 770 77T868 200T903 383Q903 457 884 524T829 637T745 709T639 735Q558 735 500 680T442 549Z"  />
<glyph unicode="&#xFF;" horiz-adv-x="1110" d="M555 -102L236 580Q221 614 192 666T143 737Q114 766 87 766Q82 766 80 766T74 765Q66 765 66 778V815Q66 825 82 825H516Q541 825 541 811V780Q541 766 510 766Q471 766 450 757T428 719Q428 703 448 645T485 549L662 164L801 512Q819 554 843 625T868 711Q868 741 840 753T780 766H745Q731 766 731 780V811Q731 825 745 825H1049Q1065 825 1065 815V772Q1065 766 1054 765T1034 762T1010 743Q981 707 926 587T813 330L625 -115Q580 -224 556 -280T502 -387T436 -475Q383 -528 331 -548T217 -569H143Q113 -569 104 -562T94 -526Q94 -506 94 -488T92 -433T90 -360T88 -309Q88 -291 96 -291H137Q142 -291 145 -299T155 -332T166 -369Q176 -400 189 -412T244 -424Q313 -424 360 -403T437 -341T501 -226T555 -102ZM381 1180Q427 1180 458 1148T489 1071Q489 1027 458 995T381 963Q334 963 302 995T270 1071Q270 1116 302 1148T381 1180ZM733 1180Q778 1180 810 1148T842 1071Q842 1027 810 995T733 963Q689 963 657 995T625 1071Q625 1116 657 1148T733 1180Z"  />
<glyph unicode="&#x131;" horiz-adv-x="662" d="M240 305V600Q240 729 217 752Q211 758 187 764T137 770H109Q92 770 92 786V813Q92 829 113 829H240Q262 829 289 830T335 833T373 836Q432 842 449 842Q465 842 465 819Q465 814 460 718T455 578V305V194Q455 103 459 72Q477 70 508 65T563 59H594Q607 59 610 58T614 45V18Q614 0 594 0H109Q97 0 92 3T86 14V41Q86 59 98 59H123Q178 59 203 82Q240 119 240 305Z"  />
<glyph unicode="&#x152;" horiz-adv-x="1772" d="M909 410V842Q909 958 901 1009T866 1087Q845 1109 805 1123T715 1137Q513 1137 432 1005T350 625Q350 474 395 335T506 129Q535 100 566 81T633 53T719 43Q819 43 866 90Q883 107 891 132T904 226T909 410ZM1688 0H958Q917 0 823 -12Q721 -25 686 -25Q422 -25 272 123Q178 217 133 338T88 563Q88 689 144 816T281 1024Q456 1202 729 1202Q797 1202 831 1199T938 1186T1040 1176H1671Q1681 1176 1681 1163V942Q1681 924 1671 924H1630Q1620 924 1616 944Q1598 1004 1549 1053T1448 1102H1147Q1147 1058 1143 958V647H1409Q1468 647 1513 688T1567 799Q1570 819 1581 819H1616Q1628 819 1628 803V420Q1628 401 1616 401H1573Q1570 401 1567 422Q1559 464 1539 497T1485 551T1409 571H1143V248Q1146 149 1151 74H1446Q1518 74 1574 128T1647 272Q1650 287 1663 287H1704Q1710 287 1710 268V12Q1710 0 1688 0Z"  />
<glyph unicode="&#x153;" horiz-adv-x="1536" d="M954 567H1225Q1251 567 1251 604Q1251 791 1118 791Q989 791 954 567ZM524 35Q584 35 630 69T701 175T727 358Q727 491 708 586T644 736T520 791Q418 791 365 701T311 449Q311 35 524 35ZM1430 213L1466 193Q1472 190 1472 186Q1472 182 1462 166Q1423 102 1370 59T1252 -6T1112 -29Q939 -29 825 88Q694 -29 496 -29Q404 -29 327 2T191 93T102 226T72 383Q72 484 107 573T202 724T345 821T520 856Q727 856 852 731Q916 795 985 825T1153 856Q1251 856 1328 818T1449 711T1493 555Q1493 502 1470 502H942Q939 477 939 449Q939 374 965 299T1040 174Q1115 100 1214 100Q1335 100 1417 209Q1421 213 1430 213Z"  />
<glyph unicode="&#x160;" horiz-adv-x="981" d="M70 39V336Q70 344 80 344H129Q140 344 144 338T152 319Q171 246 192 198T227 135Q315 43 442 43Q546 43 613 103T680 246Q680 316 631 365Q595 401 548 427T411 494T270 563T174 633Q80 727 80 856Q80 949 132 1028T289 1154T541 1202Q613 1202 697 1192T823 1169Q852 1159 852 1151V895Q852 872 836 872H793Q783 872 778 876T771 887T764 903Q742 973 728 1008T686 1069Q622 1133 506 1133Q444 1133 397 1105T326 1031T301 940Q301 867 360 805Q396 770 441 744T576 677T720 606T813 537Q901 446 901 319Q901 201 835 124T657 11T406 -25Q309 -25 243 -15T96 12Q81 15 76 20T70 39ZM584 1280H400L209 1609H240L515 1398L744 1609H773L584 1280Z"  />
<glyph unicode="&#x161;" horiz-adv-x="768" d="M88 18V221Q88 236 102 236H137Q145 236 145 219Q145 160 194 97T332 33Q395 33 440 72T485 164Q485 213 449 250Q423 276 392 294T300 345T211 396T152 444Q84 512 84 598Q84 668 126 727T251 821T455 856Q511 856 563 850T643 835T672 823V610Q672 604 662 604H627Q614 604 614 614Q614 680 564 736T438 793Q373 793 337 754T301 666Q301 616 338 580Q366 552 428 520T551 455T649 385Q715 316 715 233Q715 161 670 101T537 6T332 -29Q256 -29 172 -13T88 18ZM477 963H293L102 1292H133L408 1081L637 1292H666L477 963Z"  />
<glyph unicode="&#x178;" horiz-adv-x="1323" d="M788 473V197Q788 107 807 88Q832 63 956 63Q977 63 977 47V10Q977 0 954 0H373Q362 0 362 10V47Q362 63 393 63Q511 63 537 88Q555 106 555 221V463L238 971Q191 1045 157 1079T76 1114Q55 1114 55 1128V1165Q55 1178 70 1178H606Q623 1178 623 1165V1130Q623 1114 600 1114Q481 1114 481 1057Q481 1035 498 1006L752 569L991 952Q1034 1020 1034 1056Q1034 1114 901 1114Q886 1114 882 1119T877 1141V1169Q877 1178 893 1178H1270Q1282 1178 1282 1169V1135Q1282 1114 1264 1114Q1229 1114 1200 1093T1146 1038T1087 950L788 473ZM488 1497Q534 1497 565 1465T596 1388Q596 1344 565 1312T488 1280Q441 1280 409 1312T377 1388Q377 1433 409 1465T488 1497ZM840 1497Q885 1497 917 1465T949 1388Q949 1344 917 1312T840 1280Q796 1280 764 1312T732 1388Q732 1433 764 1465T840 1497Z"  />
<glyph unicode="&#x17D;" horiz-adv-x="981" d="M932 272V16Q932 0 909 0H66Q51 0 48 2T45 16V61Q45 69 55 82T76 113Q182 280 372 599T655 1087H408Q326 1087 267 1047T166 924Q163 917 161 913T156 905T147 901H113Q100 901 100 924V1169Q100 1178 127 1178H920Q942 1178 942 1169V1116Q942 1103 932 1086T903 1038Q837 930 769 817T599 533T426 242T336 88H567Q663 88 723 107T817 167T868 272Q873 299 887 299H920Q932 299 932 272ZM584 1280H400L209 1609H240L515 1398L744 1609H773L584 1280Z"  />
<glyph unicode="&#x17E;" horiz-adv-x="981" d="M125 825H887Q899 825 899 815V743Q839 678 767 589T627 416Q597 378 536 302T434 170T367 76H637Q758 76 801 119Q848 166 848 223Q848 240 858 240H893Q905 240 905 227V14Q905 0 893 0H94Q78 0 78 18V70Q118 113 166 172T269 301T356 410Q459 540 489 578T623 754H365Q268 754 217 707Q200 689 185 649T170 588Q170 569 160 569H125Q113 569 113 582V807Q113 825 125 825ZM584 963H400L209 1292H240L515 1081L744 1292H773L584 963Z"  />
<glyph unicode="&#x192;" horiz-adv-x="1024" d="M711 784L610 285Q560 40 517 -95T420 -300T268 -418Q217 -442 152 -442Q113 -442 78 -427T21 -387T0 -328Q0 -300 13 -277T50 -241T100 -227Q143 -227 169 -248T195 -305Q195 -322 190 -330Q182 -358 182 -358Q182 -369 193 -375Q199 -381 209 -381Q246 -381 266 -347T287 -252Q287 -221 283 -156Q279 -90 279 -57Q279 6 286 65T319 248L428 784H287L311 905Q381 905 424 923T498 989T563 1133Q599 1226 640 1280T737 1362T862 1389Q935 1389 979 1354T1024 1262Q1024 1211 994 1178T915 1145Q881 1145 855 1170T829 1227Q829 1253 856 1305Q860 1317 860 1317Q860 1341 834 1341Q792 1341 766 1302T739 1202Q739 1147 743 1116Q745 1086 746 1059T748 1024Q748 986 735 905H889L864 784H711Z"  />
<glyph unicode="&#x2C6;" horiz-adv-x="682" d="M248 1274H432L623 944H592L319 1157L90 944H59L248 1274Z"  />
<glyph unicode="&#x2C7;" horiz-adv-x="682" d="M434 963H250L59 1292H90L365 1081L594 1292H623L434 963Z"  />
<glyph unicode="&#x2DA;" horiz-adv-x="682" d="M342 1339Q422 1339 477 1283T532 1147Q532 1068 476 1012T342 956Q264 956 207 1013T150 1147Q150 1225 206 1282T342 1339ZM342 1270Q291 1270 255 1233T219 1147Q219 1098 255 1062T342 1026Q392 1026 427 1061T463 1147Q463 1197 428 1233T342 1270Z"  />
<glyph unicode="&#x2DC;" horiz-adv-x="682" d="M53 938H23Q26 1064 75 1131T213 1198Q257 1198 296 1182T408 1116Q496 1059 535 1059Q575 1059 596 1090T631 1198H662V1180Q662 1069 607 1003T463 936Q392 936 274 1016Q221 1053 197 1065T143 1077Q109 1077 91 1053T59 969Q56 961 53 938Z"  />
<glyph unicode="&#x2013;" horiz-adv-x="1024" d="M-18 584H1042V455H-18V584Z"  />
<glyph unicode="&#x2014;" horiz-adv-x="2048" d="M-16 584H2066V455H-18L-16 584Z"  />
<glyph unicode="&#x2018;" horiz-adv-x="662" d="M471 1323H514Q471 1169 449 1036Q440 982 433 956T412 907Q367 870 289 870Q170 870 170 940Q170 981 245 1083T444 1311Q457 1323 471 1323Z"  />
<glyph unicode="&#x2019;" horiz-adv-x="662" d="M223 872H174Q170 872 170 880Q170 889 174 905Q197 981 218 1095T245 1238T270 1284Q285 1300 322 1311T394 1322Q443 1322 475 1305T508 1249Q508 1224 477 1176T369 1038T223 872Z"  />
<glyph unicode="&#x201A;" horiz-adv-x="662" d="M199 -231H152Q141 -231 141 -227Q143 -223 145 -214T150 -199Q152 -195 153 -191T156 -182Q156 -174 162 -162Q175 -113 183 -70T197 10Q212 97 221 128T248 184Q291 219 369 219Q421 219 451 200T481 150Q481 115 428 40T260 -162Q251 -173 233 -193T199 -231Z"  />
<glyph unicode="&#x201C;" horiz-adv-x="1110" d="M940 1321H977Q949 1219 928 1109T897 960T868 903Q853 888 818 879T748 870Q701 870 669 889T637 938Q637 987 714 1082T913 1309Q927 1321 940 1321ZM475 1319H512Q483 1214 463 1106T434 960T406 901Q374 870 285 870Q235 870 205 887T174 936Q174 985 250 1079T449 1307Q461 1319 475 1319Z"  />
<glyph unicode="&#x201D;" horiz-adv-x="1110" d="M690 870L645 868Q640 868 640 875Q640 881 645 901Q669 979 685 1073T710 1215T737 1282Q770 1315 862 1315Q918 1315 947 1301T977 1251Q977 1210 912 1126T690 870ZM225 868L186 870Q179 870 179 881Q179 890 182 903Q209 999 227 1092T254 1228T276 1284Q307 1315 397 1315Q514 1315 514 1247Q514 1219 483 1172T397 1060T225 868Z"  />
<glyph unicode="&#x201E;" horiz-adv-x="1110" d="M688 -236H643Q638 -236 638 -228Q638 -218 643 -205Q671 -116 686 -22T710 115T739 178Q770 213 854 213Q977 213 977 139Q977 103 912 21T688 -236ZM223 -236H182Q175 -236 175 -224Q175 -213 180 -199Q199 -135 215 -59T240 66T257 139T281 180Q291 190 321 201T389 213Q445 213 478 197T512 143Q512 102 446 18T223 -236Z"  />
<glyph unicode="&#x2020;" horiz-adv-x="981" d="M469 805L406 1090Q383 1200 383 1245Q383 1327 510 1327Q623 1322 623 1249Q623 1220 612 1151T588 1034L532 801L692 850Q836 891 872 891Q914 891 931 856T948 774Q948 649 866 649Q845 649 789 662T690 688L535 737L600 86Q602 73 612 -63T629 -314T637 -477Q637 -567 504 -567Q371 -567 371 -463Q371 -449 375 -376T385 -213T393 -98L469 737L283 680Q165 647 137 647Q97 647 77 680T57 766Q57 820 73 854T139 889Q185 889 272 860L469 805Z"  />
<glyph unicode="&#x2021;" horiz-adv-x="981" d="M473 797L408 1081Q384 1190 384 1236Q384 1277 406 1296Q433 1325 504 1325Q573 1325 602 1296Q623 1275 623 1231Q623 1196 606 1118L532 797L713 854Q821 889 868 889Q901 889 918 870Q949 837 949 767Q949 698 915 664Q898 647 865 647Q823 647 739 674L532 737L618 375L532 20L780 92Q836 110 864 110Q897 110 918 90Q949 60 949 -15Q949 -84 920 -113Q900 -132 864 -132Q835 -132 780 -117L532 -43L606 -367Q623 -444 623 -476Q623 -518 600 -541Q573 -568 501 -568Q431 -568 399 -537Q384 -522 384 -483Q384 -443 403 -342L471 -43L254 -109Q214 -121 188 -128T141 -135Q106 -135 84 -113Q55 -84 55 -11Q55 58 88 92Q103 109 140 109Q170 109 213 96L473 20L383 381L473 737L289 680Q180 647 142 647Q105 647 82 670Q56 696 56 765Q56 840 84 868Q105 889 140 889Q174 889 240 868L473 797Z"  />
<glyph unicode="&#x2022;" horiz-adv-x="717" d="M356 963Q435 963 500 925T604 820T643 676Q643 599 605 533T501 428T358 389Q281 389 216 427T113 532T74 676Q74 754 112 819T215 924T356 963Z"  />
<glyph unicode="&#x2026;" horiz-adv-x="2048" d="M340 244Q397 244 437 204T477 106Q477 51 436 11T340 -29Q285 -29 245 11T205 106Q205 164 244 204T340 244ZM1024 248Q1084 246 1122 207T1161 111Q1161 55 1120 15T1024 -25Q969 -25 929 15T889 111Q889 166 929 207T1022 248H1024ZM1704 250Q1760 250 1800 211T1841 115Q1841 57 1801 19T1704 -20Q1647 -20 1608 19T1569 115Q1569 171 1608 210T1704 250Z"  />
<glyph unicode="&#x2030;" horiz-adv-x="2286" d="M395 657H397Q458 657 487 724T516 924Q516 1198 393 1198Q274 1198 274 922Q274 657 395 657ZM393 1241Q542 1241 629 1159T717 934Q717 864 693 805T626 703T523 635T395 610Q298 610 224 647T111 753T72 913Q72 1054 163 1147T393 1241ZM1135 -61Q1037 -61 965 -24T853 82T813 244Q813 383 904 474T1135 565Q1282 565 1368 481T1454 250Q1454 165 1412 93T1296 -20T1135 -61ZM1135 -18Q1253 -18 1253 244Q1253 380 1221 451T1128 522Q1070 522 1042 460T1014 268Q1014 -18 1135 -18ZM1894 -61Q1749 -61 1662 21T1575 244Q1575 382 1665 473T1894 565Q2042 565 2129 481T2216 250Q2216 165 2174 93T2057 -20T1894 -61ZM1894 -18Q2015 -18 2015 244Q2015 380 1983 451T1890 522Q1830 522 1802 460T1774 268Q1774 125 1803 54T1894 -18ZM1149 1241H1257L377 -61H272L1149 1241Z"  />
<glyph unicode="&#x2039;" horiz-adv-x="662" d="M131 426L496 811Q511 826 518 826Q521 826 524 823L549 801Q553 797 553 791Q553 786 543 766L362 416L537 68Q539 64 544 55T550 39Q550 34 545 29L520 4Q517 0 513 0Q508 0 496 12L135 395Q125 405 125 414Q125 420 131 426Z"  />
<glyph unicode="&#x203A;" horiz-adv-x="662" d="M164 823L535 428Q544 419 544 414Q544 410 535 399L164 8Q156 0 151 0Q149 0 145 2L119 31Q116 34 116 38Q116 43 123 57L303 414L125 774Q119 786 119 791Q119 796 123 799L145 821Q153 827 156 827Q160 827 164 823Z"  />
<glyph unicode="&#x20AC;" horiz-adv-x="981" d="M879 502Q874 492 852 492H348Q358 406 383 333T444 206T530 122T639 92Q707 92 762 126T872 227Q889 250 895 252T907 250L932 229Q936 225 936 215Q936 205 917 167T853 88T739 14T567 -20Q473 -20 391 17T247 122T144 284T94 492H-6Q-16 492 -17 497T-18 506L-10 541Q-6 557 8 557H92V565Q92 616 98 670H-6Q-16 670 -17 675T-18 684L-10 719Q-6 735 8 735H109Q139 877 215 987T399 1151Q451 1176 518 1191T664 1206Q717 1206 767 1198T857 1179T921 1155T946 1135V889Q946 868 932 868H895Q887 868 884 871T877 889Q864 932 841 976T785 1056T712 1114T623 1137Q561 1137 513 1107T431 1024T376 897T346 735H883Q909 735 907 719L899 680Q895 670 872 670H342Q342 655 341 643T340 616Q340 600 340 587T342 557H862Q889 557 887 541L879 502Z"  />
<glyph unicode="&#x2122;" horiz-adv-x="2048" d="M-2 1356H774V1130H739Q733 1227 690 1266T545 1305H508V717Q508 660 515 632T543 594T610 584V549H156V584Q209 587 228 595T252 627T258 721V1305H225Q128 1305 83 1264T29 1130H-2V1356ZM885 1356H1251L1483 860L1712 1356H2058V1319H2054Q1993 1319 1976 1294T1958 1184V713Q1958 634 1976 611T2058 584V549H1597V584Q1649 584 1672 593T1703 629T1712 713L1708 1219L1393 549H1368L1051 1219V715Q1051 653 1058 628T1088 594T1165 584V549H885V584Q936 586 958 594T986 629T993 719V1186Q993 1270 976 1294T901 1319H885V1356Z"  />
<glyph unicode="&#x2219;" horiz-adv-x="555" d="M295 727Q353 727 391 688T430 592Q430 536 392 496T295 455Q238 457 199 495T160 592Q160 649 199 688T295 727Z"  />

</font>
</defs>
</svg>
